<?xml version="1.0" standalone="no"?>
<!DOCTYPE svg PUBLIC "-//W3C//DTD SVG 1.1//EN" "http://www.w3.org/Graphics/SVG/1.1/DTD/svg11.dtd" >
<svg xmlns="http://www.w3.org/2000/svg">
<metadata>Generated by IcoMoon</metadata>
<defs>
<font id="umss-icon" horiz-adv-x="1024">
<font-face units-per-em="1024" ascent="960" descent="-64" />
<missing-glyph horiz-adv-x="1024" />
<glyph unicode="&#x20;" horiz-adv-x="512" d="" />
<glyph unicode="&#xe900;" glyph-name="clinic" d="M315.446-24.882c-2.826 1.176-5.636 2.386-8.436 3.612 2.802-1.226 5.61-2.436 8.436-3.612zM452.914-60.586c-2.542 0.292-5.084 0.58-7.614 0.908 2.53-0.328 5.072-0.616 7.614-0.908zM327.268-29.626c-2.73 1.056-5.444 2.144-8.152 3.246 2.708-1.104 5.422-2.19 8.152-3.246zM165.142 71.43c-2.986 2.752-5.94 5.538-8.86 8.36 2.922-2.822 5.874-5.608 8.86-8.36zM269.664-3.106c-37.828 20.37-72.804 45.356-104.168 74.208 31.366-28.852 66.336-53.842 104.168-74.208zM292.248-14.546c-3.13 1.49-6.238 3.020-9.332 4.57 3.094-1.55 6.202-3.080 9.332-4.57zM339.234-34.084c-2.66 0.954-5.31 1.934-7.95 2.93 2.642-0.996 5.29-1.976 7.95-2.93zM280.876-8.962c-3.396 1.722-6.766 3.484-10.118 5.278 3.352-1.794 6.722-3.556 10.118-5.278zM439.752-58.9c-2.512 0.354-5.026 0.708-7.526 1.1 2.502-0.392 5.014-0.746 7.526-1.1zM426.728-56.89c-2.494 0.418-4.99 0.838-7.472 1.292 2.484-0.454 4.978-0.874 7.472-1.292zM155.624 80.432c-2.81 2.724-5.588 5.478-8.334 8.266 2.746-2.788 5.526-5.542 8.334-8.266zM413.83-54.558c-2.488 0.484-4.972 0.972-7.446 1.49 2.474-0.518 4.96-1.006 7.446-1.49zM375.95-45.69c-2.534 0.698-5.062 1.41-7.58 2.144 2.518-0.734 5.046-1.446 7.58-2.144zM401.074-51.912c-2.496 0.552-4.986 1.112-7.468 1.698 2.48-0.586 4.972-1.146 7.468-1.698zM363.574-42.118c-2.564 0.776-5.118 1.57-7.664 2.384 2.544-0.814 5.1-1.608 7.664-2.384zM351.336-38.25c-2.606 0.86-5.202 1.744-7.79 2.646 2.588-0.9 5.184-1.784 7.79-2.646zM303.776-19.856c-2.954 1.316-5.886 2.67-8.81 4.040 2.922-1.37 5.856-2.722 8.81-4.040zM110.298 352.676c-0.11 0.124-0.178 0.244-0.238 0.362 0.042-0.158 0.080-0.31 0.114-0.438 0.072 0.046 0.124 0.076 0.124 0.076zM112.938 349.726c0.032 0 0.064 0 0.096 0 0.030 0.158 0.058 0.274 0.058 0.274-0.050-0.104-0.102-0.186-0.154-0.274zM104.676 358.516c-0.044 0.018-0.1 0.042-0.142 0.058-2.11-0.996-4.416-1.7-6.858-2.032-2.814-0.39-5.572-0.238-8.19 0.34 1.848-11.278 6.374-14.054 6.374-14.054 0.566-1.286 1.294-0.652 1.914 0.386 0.002 4.734 0.198 6.428 4.77 6.502l2.32 2.39c0.194 0.578 0.084 3.034-0.188 6.41zM110.67 354.806c-0.442 0.082-0.812 0.196-1.152 0.32 0.154-0.6 0.29-1.12 0.408-1.57-0.002 0.734 0.744 1.25 0.744 1.25zM75.47 360.54c0.774-4.186 1.598-7.494 1.598-7.494l6.232-14.69c2.95-1.974 4.024 4.766 4.024 4.766 0.722 1.406-3.81 15.61-3.81 15.61 0.024 0.124 0.036 0.23 0.056 0.35-0.84 0.452-1.664 0.936-2.44 1.486-2.068-0.412-4.216-0.24-5.66-0.028zM938.024 368.538c-2.816-0.39-5.574-0.238-8.192 0.342 1.848-11.288 6.374-14.074 6.374-14.074 1.192-2.734 3.184 3.302 3.184 3.302l5.822 5.998c0.19 0.574 0.080 3.030-0.19 6.408-0.044 0.018-0.1 0.042-0.142 0.058-2.11-0.998-4.414-1.702-6.856-2.034zM146.408 89.602c-2.66 2.714-5.292 5.454-7.892 8.226 2.598-2.772 5.23-5.512 7.892-8.226zM911.65 378.404c-0.376-0.786-0.774-1.388-1.18-1.858 0.306-0.308 0.596-0.602 0.874-0.888-0.060 1.38 0.306 2.746 0.306 2.746zM915.816 372.536c0.774-4.186 1.598-7.494 1.598-7.494l6.212-14.69c2.97-1.974 4.044 4.766 4.044 4.766 0.704 1.406-3.828 15.608-3.828 15.608 0.024 0.128 0.038 0.236 0.060 0.358-0.834 0.45-1.652 0.93-2.424 1.478-2.070-0.41-4.218-0.238-5.662-0.026zM97.216 147.832c-2.464 3.398-4.886 6.826-7.268 10.286 2.382-3.46 4.804-6.888 7.268-10.286zM104.916 137.49c-2.566 3.358-5.092 6.75-7.576 10.172 2.484-3.424 5.010-6.814 7.576-10.172zM89.782 158.36c-2.374 3.452-4.704 6.934-6.994 10.446 2.29-3.514 4.622-6.994 6.994-10.446zM25.842 287.046c-1.46 4.434-2.864 8.896-4.218 13.384 1.348-4.488 2.752-8.95 4.218-13.384zM1002.372 300.414c-1.206-4.028-2.474-8.028-3.772-12.012 1.304 3.982 2.562 7.986 3.772 12.012zM71.306 366.41c-0.376-0.784-0.772-1.386-1.178-1.854 0.304-0.306 0.594-0.602 0.872-0.888-0.062 1.378 0.306 2.742 0.306 2.742zM30.498 273.572c-1.58 4.366-3.1 8.758-4.56 13.178 1.466-4.418 2.978-8.814 4.56-13.178zM494.090-63.654c-3.010 0.104-6.022 0.202-9.018 0.358 2.996-0.156 6.008-0.254 9.018-0.358zM741.016-10.014c-3.058-1.532-6.13-3.044-9.222-4.518 3.092 1.474 6.162 2.986 9.222 4.518zM876.784 88.77c-2.82-2.862-5.674-5.692-8.558-8.488 2.884 2.796 5.738 5.626 8.558 8.488zM753.198-3.71c-3.328-1.782-6.674-3.532-10.046-5.24 3.372 1.708 6.718 3.458 10.046 5.24zM867.788 79.856c-3-2.9-6.036-5.766-9.106-8.592 3.070 2.826 6.104 5.69 9.106 8.592zM858.572 71.162c-31.378-28.876-66.37-53.88-104.22-74.262 37.854 20.378 72.84 45.388 104.22 74.262zM704.802-26.418c-2.658-1.082-5.324-2.148-8.004-3.188 2.68 1.038 5.346 2.106 8.004 3.188zM716.91-21.308c-2.756-1.206-5.52-2.396-8.3-3.554 2.782 1.158 5.544 2.348 8.3 3.554zM728.954-15.856c-2.882-1.35-5.772-2.684-8.684-3.982 2.912 1.298 5.802 2.632 8.684 3.982zM926 146.756c-2.104-2.884-4.232-5.748-6.394-8.588 2.162 2.838 4.292 5.702 6.394 8.588zM940.588 167.854c-1.976-3.016-3.978-6.014-6.014-8.986 2.036 2.972 4.038 5.97 6.014 8.986zM933.408 157.19c-2.034-2.942-4.094-5.864-6.188-8.76 2.094 2.896 4.154 5.818 6.188 8.76zM692.638-31.186c-2.59-0.978-5.19-1.94-7.8-2.876 2.612 0.936 5.21 1.898 7.8 2.876zM993.336 273.102c-8.916-24.528-19.654-48.182-32.050-70.796 12.394 22.616 23.136 46.266 32.050 70.796zM894.092 107.236c-2.524-2.828-5.082-5.628-7.668-8.4 2.586 2.772 5.144 5.57 7.668 8.4zM885.554 97.9c-2.664-2.842-5.362-5.652-8.090-8.432 2.728 2.78 5.426 5.59 8.090 8.432zM900.38 114.39c-1.622-1.874-3.26-3.736-4.902-5.594 1.642 1.856 3.286 3.714 4.902 5.594zM918.362 136.544c-2.186-2.848-4.4-5.672-6.644-8.472 2.244 2.8 4.458 5.624 6.644 8.472zM591.762-57.806c-2.468-0.386-4.946-0.734-7.426-1.086 2.48 0.352 4.96 0.7 7.426 1.086zM552.286-62.428c-2.688-0.21-5.39-0.368-8.088-0.536 2.698 0.168 5.4 0.326 8.088 0.536zM525.52-63.822c-4.49-0.116-8.992-0.178-13.51-0.178 4.518 0 9.020 0.062 13.51 0.178zM578.698-59.68c-2.502-0.326-5.016-0.61-7.53-0.898 2.514 0.29 5.028 0.574 7.53 0.898zM565.536-61.222c-2.564-0.266-5.14-0.486-7.716-0.716 2.574 0.23 5.152 0.45 7.716 0.716zM538.944-63.296c-2.986-0.154-5.988-0.254-8.988-0.356 3 0.102 6 0.2 8.988 0.356zM479.864-62.966c-2.716 0.168-5.434 0.328-8.14 0.538 2.706-0.21 5.424-0.37 8.14-0.538zM680.386-35.63c-2.54-0.884-5.088-1.752-7.646-2.598 2.558 0.846 5.106 1.714 7.646 2.598zM512.010-64c-4.518 0-9.022 0.062-13.512 0.178 4.49-0.116 8.994-0.178 13.512-0.178zM951.014 366.78c-0.44 0.082-0.808 0.196-1.146 0.32 0.148-0.574 0.278-1.072 0.392-1.51 0.034 0.704 0.754 1.19 0.754 1.19zM655.576-43.564c-2.47-0.72-4.948-1.42-7.434-2.104 2.486 0.684 4.964 1.384 7.434 2.104zM668.032-39.756c-2.498-0.798-5.006-1.578-7.52-2.34 2.514 0.762 5.022 1.542 7.52 2.34zM643.022-47.052c-2.452-0.648-4.914-1.27-7.38-1.882 2.466 0.61 4.928 1.234 7.38 1.882zM630.358-50.224c-2.438-0.576-4.886-1.126-7.336-1.668 2.452 0.54 4.898 1.090 7.336 1.668zM604.724-55.604c-2.444-0.448-4.902-0.86-7.358-1.274 2.458 0.414 4.914 0.828 7.358 1.274zM466.252-61.942c-2.598 0.23-5.198 0.452-7.784 0.722 2.588-0.27 5.188-0.492 7.784-0.722zM617.588-53.076c-2.434-0.51-4.878-0.99-7.324-1.466 2.448 0.476 4.892 0.956 7.324 1.466zM388.454-48.956c-2.514 0.624-5.022 1.258-7.522 1.918 2.498-0.66 5.008-1.294 7.522-1.918zM79.49 322.65c-0.468 2.148 0.332 13.518 0.332 13.518-0.234 3.732-7.014 22.778-7.014 22.778-1.318 1.93-2.482 3.51-3.528 4.84-1.718-1.184-3.494-0.278-4.62 0.612 0.294-1.406-3.068-2.11-3.068-2.11-0.626-5.158-5.45-3.282-6.584-2.774-0.86-0.41-1.798-0.704-2.774-0.84-2.462-0.332-4.806 0.332-6.7 1.64-1.426-0.292-2.97 0.118-2.97 0.118-1.642-0.176-0.996 2.246-0.996 2.246-1.27-2.696-3.164-0.372-3.164-0.372-1.778 1.914 0.39 3.028 0.39 3.028-1.036 1.192 0.372 2.148 0.372 2.148-4.044 0.762-3.478 3.496-3.478 3.496-1.856 2.422-0.020 4.494-0.020 4.494-0.274 0.214-0.45 0.43-0.566 0.626-2.286-0.196-4.474 0.43-6.232 1.68-1.426-0.274-2.988 0.136-2.988 0.136-1.66-0.196-0.996 2.246-0.996 2.246-1.29-2.716-3.184-0.372-3.184-0.372-1.798 1.914 0.372 3.048 0.372 3.048-1.036 1.192 0.39 2.168 0.39 2.168-4.064 0.762-3.496 3.516-3.496 3.516-1.856 2.422-0.020 4.512-0.020 4.512-1.622 1.308-0.136 2.638-0.136 2.638-0.528 1.602 1.758 1.544 1.758 1.544-2.286 4.356 1.758 4.844 1.758 4.844 0.742 2.090 2.56 0.82 2.56 0.82 0.918 2.324 4.082 0.566 4.082 0.566-0.938 1.992 2.032 2.012 2.032 2.012 0.586 0.312 1.114 0.352 1.562 0.234 0 0.254 0.040 0.43 0.040 0.43-1.856 2.422-0.040 4.494-0.040 4.494-1.602 1.328-0.118 2.638-0.118 2.638-0.234 0.704 0.058 1.074 0.468 1.29-1.798 4.2 1.094 7.482 1.094 7.482-3.38 2.754-0.274 5.528-0.274 5.528-1.094 3.36 3.692 3.242 3.692 3.242-4.786 9.124 3.692 10.14 3.692 10.14 1.544 4.396 5.334 1.738 5.334 1.738 1.934 4.844 8.596 1.172 8.596 1.172-1.974 4.18 4.278 4.22 4.278 4.22 4.18 2.324 7.112-2.638 7.112-2.638 2.5 3.242 4.552 4.376 6.192 4.454-1.388 4.512 3.204 5.080 3.204 5.080 1.036 2.93 3.556 1.152 3.556 1.152 1.308 3.242 5.744 0.782 5.744 0.782-1.308 2.794 2.872 2.814 2.872 2.814 2.814 1.582 4.766-1.758 4.766-1.758 4.962 6.486 7.404 0.352 7.404 0.352 8.44 4.142 9.806-3.672 9.806-3.672 1.72 2.208 4.044-0.058 6.252-3.224 1.466-2.11 0.528-4.004-0.274-5.040 1.466-0.84 2.344-2.344 2.344-2.344 6.564 8.576 9.768 0.468 9.768 0.468 0.508 0.25 0.976 0.434 1.446 0.62v141.33h-16v23.696h252.166v129.54h-8.536v35.79h284.36v-35.79h-8.538v-129.54h264.81v-23.696h-14.69v-131.31c1.692 0.948 3.712-0.458 3.712-0.458 1.934 4.844 8.576 1.172 8.576 1.172-1.954 4.18 4.278 4.22 4.278 4.22 4.2 2.324 7.13-2.638 7.13-2.638 2.482 3.242 4.552 4.376 6.192 4.434-1.388 4.532 3.184 5.098 3.184 5.098 1.036 2.93 3.574 1.152 3.574 1.152 1.29 3.242 5.744 0.782 5.744 0.782-1.308 2.794 2.872 2.814 2.872 2.814 2.814 1.582 4.766-1.758 4.766-1.758 4.962 6.486 7.404 0.352 7.404 0.352 8.44 4.142 9.808-3.672 9.808-3.672 1.72 2.208 4.044-0.058 6.252-3.224 1.466-2.11 0.528-4.004-0.292-5.040 1.484-0.84 2.364-2.344 2.364-2.344 6.564 8.576 9.768 0.468 9.768 0.468 11.136 5.49 12.932-4.864 12.932-4.864 2.266 2.91 5.314-0.058 8.264-4.24 2.93-4.2-1.426-7.756-1.426-7.756 3.086-2.676-1.582-4.494-1.582-4.494 2.5-2.384 0.020-4.748-0.606-5.294 2.95 2.402 4.396-0.508 4.396-0.508 4.336-0.722-0.214-4.162-0.214-4.162-1.582-0.626-2.598 1.036-2.598 1.036-2.168-1.054-2.5-1.876-2.364-2.402 5.45 1.27 6.408-4.22 6.408-4.22 1.544 1.992 3.634-0.058 5.666-2.91 1.992-2.872-0.996-5.314-0.996-5.314 2.11-1.836-1.074-3.068-1.074-3.068 1.72-1.64 0.020-3.262-0.43-3.634 2.032 1.66 3.008-0.352 3.008-0.352 2.99-0.488-0.136-2.852-0.136-2.852-1.094-0.41-1.778 0.722-1.778 0.722-0.782-0.39-1.23-0.722-1.446-1.016 2.012-0.82 2.442-3.242 2.442-3.242 1.212 1.582 2.852-0.040 4.454-2.306 1.582-2.246-0.762-4.18-0.762-4.18 1.66-1.446-0.86-2.422-0.86-2.422 1.348-1.29 0.020-2.56-0.332-2.852 1.602 1.29 2.384-0.274 2.384-0.274 2.344-0.39-0.118-2.266-0.118-2.266-0.88-0.332-1.406 0.566-1.406 0.566-2.168-1.054-0.976-1.66-0.976-1.66 1.64 0.372 0.684-1.036 0.684-1.036l-0.996-0.136-1.192-0.644 0.078-0.39 0.898 0.098 0.078-0.684-1.054-0.488 0.332-0.782c1.212-1.72-2.892-2.578-2.892-2.578-0.626-5.178-5.49-3.322-6.604-2.794-0.88-0.41-1.816-0.704-2.794-0.84-2.482-0.332-4.844 0.312-6.74 1.64l-0.586-0.098c0.234-0.938-0.626-1.758-0.88-1.974 1.602 1.29 2.344-0.292 2.344-0.292 2.364-0.372-0.118-2.228-0.118-2.228-0.84-0.332-1.388 0.586-1.388 0.586-2.148-1.074-0.938-1.68-0.938-1.68 1.602 0.372 0.644-1.016 0.644-1.016l-0.976-0.136-1.172-0.624 0.060-0.428 0.88 0.118 0.098-0.684-1.054-0.488 0.332-0.782c1.192-1.72-2.852-2.54-2.852-2.54-0.644-5.178-5.47-3.322-6.604-2.794-0.86-0.43-1.798-0.704-2.774-0.84-2.462-0.332-4.826 0.312-6.7 1.64-1.426-0.294-2.97 0.118-2.97 0.118-1.64-0.176-0.996 2.228-0.996 2.228-1.244-2.564-3.010-0.514-3.134-0.366-6.852-5.010-20.602-18.35-20.602-18.35-1.29-2.91-0.86-12.952-0.86-12.952l2.402-27.33c-0.068-0.83-0.12-1.586-0.168-2.306h71.39c13.996 46.66 21.552 96.104 21.552 147.318 0 282.778-229.232 512.010-511.99 512.010-282.778 0-512.010-229.232-512.010-512.010 0-51.216 7.556-100.66 21.552-147.318h59.66c0.452 10.83-1.722 21.978-1.722 21.978zM737.47 775.212c2.13 19.692 18.812 35.008 39.052 35.008 6.35 0 12.346-1.504 17.66-4.2 5.762 5.646 13.636 9.104 22.31 9.104 15.042 0 27.662-10.392 31.022-24.42 7.522-2.246 13.558-7.912 16.292-15.198 0.918 0.098 1.836 0.136 2.754 0.136 13.89 0 25.162-11.272 25.162-25.162 0-13.91-11.272-25.162-25.162-25.162-4.336 0-8.4 1.074-11.956 3.008-3.068-10.452-12.718-18.090-24.166-18.090-6.994 0-13.324 2.852-17.876 7.444-4.572-4.59-10.9-7.444-17.876-7.444-6.662 0-12.698 2.578-17.21 6.778-4.59-5.040-11.214-8.186-18.558-8.186-6.896 0-13.128 2.754-17.68 7.248-2.070-0.468-4.22-0.704-6.446-0.704-16.566 0-29.968 13.422-29.968 29.968 0 16.566 13.402 29.988 29.968 29.988 0.9 0.002 1.8-0.038 2.678-0.116zM681.97 879.904c28.894 0 52.316-23.424 52.316-52.316s-23.424-52.316-52.316-52.316c-28.894 0-52.316 23.424-52.316 52.316s23.422 52.316 52.316 52.316zM471.474 869.1c0.898 0 1.798-0.040 2.676-0.118 2.13 19.672 18.812 35.008 39.052 35.008 6.35 0 12.346-1.504 17.66-4.2 5.764 5.646 13.636 9.104 22.31 9.104 15.042 0 27.662-10.412 31.022-24.42 7.522-2.246 13.558-7.932 16.292-15.198 0.918 0.078 1.836 0.136 2.754 0.136 13.89 0 25.162-11.272 25.162-25.162 0-13.91-11.272-25.162-25.162-25.162-4.336 0-8.4 1.074-11.956 3.008-3.068-10.472-12.718-18.090-24.166-18.090-6.994 0-13.324 2.852-17.876 7.444-4.572-4.59-10.9-7.444-17.894-7.444-6.642 0-12.678 2.578-17.192 6.778-4.59-5.040-11.214-8.186-18.558-8.186-6.896 0-13.128 2.754-17.68 7.248-2.070-0.468-4.24-0.704-6.446-0.704-16.566 0-29.968 13.422-29.968 29.968 0.002 16.57 13.404 29.99 29.97 29.99zM941.658 169.48c1.916 2.95 3.796 5.926 5.654 8.918h-0.004c-1.856-2.99-3.734-5.968-5.65-8.918zM104.98 137.404c10.394-13.6 21.452-26.662 33.13-39.142h0.008c-11.68 12.48-22.742 25.544-33.138 39.142zM30.666 273.092c10.522-28.946 23.592-56.666 38.918-82.908v0.010c-15.328 26.238-28.396 53.958-38.918 82.898zM956.11 193.050c1.638 2.848 3.23 5.724 4.814 8.606-1.588-2.888-3.22-5.752-4.862-8.606h0.048zM919.836 334.644c-0.468 2.148 0.332 13.518 0.332 13.518-0.254 3.732-7.014 22.778-7.014 22.778-1.318 1.93-2.482 3.51-3.528 4.84-1.718-1.184-3.494-0.278-4.62 0.612 0.292-1.406-3.068-2.11-3.068-2.11-0.626-5.158-5.45-3.282-6.584-2.774-0.86-0.41-1.798-0.704-2.794-0.84-2.442-0.332-4.806 0.332-6.682 1.64-1.15-0.236-2.362-0.018-2.794 0.076v-71.714h36.398c4.58 12.25 0.354 33.974 0.354 33.974zM76.69 178.398c1.948-3.138 3.922-6.254 5.936-9.346-2.012 3.090-3.976 6.212-5.922 9.346h-0.014zM906.962 122.174c1.196 1.448 2.358 2.924 3.538 4.386-1.192-1.474-2.412-2.924-3.62-4.386h0.082zM75.852 179.742c0.164-0.266 0.332-0.53 0.496-0.796-0.048 0.078-0.094 0.16-0.144 0.238-0.116 0.186-0.238 0.37-0.352 0.558zM993.514 273.606c1.5 4.142 2.942 8.31 4.338 12.5-1.39-4.192-2.83-8.36-4.338-12.5zM948.472 180.258c0.97 1.578 1.93 3.16 2.882 4.748-0.686-1.138-1.382-2.268-2.074-3.4-0.274-0.446-0.534-0.902-0.808-1.348zM950.418 364.984c0.036-0.134 0.070-0.266 0.098-0.378 0.064 0.040 0.106 0.064 0.106 0.064-0.092 0.108-0.148 0.21-0.204 0.314zM89.356 331.264c-1.308-2.91-0.88-12.952-0.88-12.952l1.564-17.64h7.736c0 16.888 0 31.76 0 38.53-4.608-4.236-8.42-7.938-8.42-7.938zM69.772 189.87c1.956-3.344 3.946-6.666 5.974-9.96-1.45 2.354-2.852 4.742-4.266 7.122-0.564 0.95-1.148 1.882-1.708 2.838zM471.474 809.146c2.208 0 4.376 0.234 6.446 0.704 4.552-4.494 10.784-7.248 17.68-7.248 7.346 0 13.968 3.146 18.558 8.186 4.512-4.2 10.55-6.778 17.192-6.778 6.994 0 13.324 2.852 17.894 7.444 4.552-4.59 10.882-7.444 17.876-7.444 11.448 0 21.098 7.618 24.166 18.090 3.556-1.934 7.618-3.008 11.956-3.008 13.89 0 25.162 11.252 25.162 25.162 0 13.89-11.272 25.162-25.162 25.162-0.918 0-1.836-0.058-2.754-0.136-2.734 7.268-8.772 12.952-16.292 15.198-3.36 14.008-15.98 24.42-31.022 24.42-8.674 0-16.546-3.458-22.31-9.104-5.314 2.696-11.312 4.2-17.66 4.2-20.238 0-36.922-15.336-39.052-35.008-0.88 0.078-1.778 0.118-2.676 0.118-16.566 0-29.968-13.42-29.968-29.988-0.002-16.55 13.4-29.97 29.966-29.97zM632.974 494.954v-35.476h-26.334v-140.93h276.448v53.838c-0.104 0.022-0.176 0.040-0.176 0.040-1.66-0.176-0.996 2.246-0.996 2.246-1.27-2.696-3.164-0.372-3.164-0.372-1.778 1.914 0.39 3.028 0.39 3.028-1.036 1.192 0.372 2.148 0.372 2.148-4.044 0.762-3.478 3.496-3.478 3.496-1.856 2.422-0.040 4.494-0.040 4.494-0.254 0.214-0.43 0.43-0.546 0.626-2.286-0.196-4.474 0.43-6.232 1.68-1.426-0.274-2.99 0.136-2.99 0.136-1.66-0.196-0.996 2.246-0.996 2.246-1.29-2.716-3.184-0.372-3.184-0.372-1.798 1.914 0.372 3.048 0.372 3.048-1.036 1.192 0.39 2.168 0.39 2.168-4.082 0.762-3.496 3.516-3.496 3.516-1.856 2.422-0.020 4.512-0.020 4.512-1.622 1.308-0.136 2.638-0.136 2.638-0.528 1.602 1.758 1.544 1.758 1.544-2.286 4.356 1.758 4.844 1.758 4.844 0.742 2.090 2.56 0.82 2.56 0.82 0.918 2.324 4.082 0.566 4.082 0.566-0.938 1.992 2.032 2.012 2.032 2.012 0.586 0.312 1.114 0.352 1.562 0.234 0 0.254 0.040 0.43 0.040 0.43-1.876 2.402-0.040 4.494-0.040 4.494-1.622 1.308-0.118 2.638-0.118 2.638-0.234 0.704 0.058 1.074 0.468 1.29-1.798 4.2 1.094 7.482 1.094 7.482-3.38 2.754-0.274 5.528-0.274 5.528-1.114 3.36 3.692 3.242 3.692 3.242-4.786 9.124 3.692 10.14 3.692 10.14 0.416 1.186 0.998 1.846 1.622 2.196v131.316h-250.112v-91.486zM772.264 540.784h62.748v-81.952h-62.748v81.952zM772.264 430.662h62.748v-81.932h-62.748v81.932zM676.168 540.784h62.748v-81.952h-62.748v81.952zM738.916 430.662v-81.932h-62.748v81.932h62.748zM141.028 439.628c2.246 2.93 5.294-0.058 8.244-4.24 2.93-4.2-1.406-7.756-1.406-7.756 3.068-2.676-1.602-4.494-1.602-4.494 2.5-2.384 0.040-4.748-0.606-5.274 2.95 2.384 4.396-0.528 4.396-0.528 4.356-0.722-0.214-4.162-0.214-4.162-1.582-0.626-2.598 1.036-2.598 1.036-2.148-1.054-2.5-1.876-2.364-2.402 5.45 1.27 6.408-4.22 6.408-4.22 1.544 1.992 3.634-0.058 5.666-2.91 1.992-2.872-0.976-5.314-0.976-5.314 2.090-1.836-1.094-3.068-1.094-3.068 1.72-1.64 0.020-3.262-0.43-3.634 2.052 1.66 3.028-0.352 3.028-0.352 2.97-0.468-0.156-2.852-0.156-2.852-1.094-0.41-1.778 0.722-1.778 0.722-0.782-0.39-1.212-0.722-1.446-1.016 2.012-0.8 2.442-3.242 2.442-3.242 1.212 1.582 2.852-0.040 4.454-2.286 1.582-2.266-0.762-4.2-0.762-4.2 1.66-1.446-0.86-2.422-0.86-2.422 1.348-1.29 0.020-2.56-0.332-2.852 1.622 1.29 2.384-0.274 2.384-0.274 2.344-0.39-0.118-2.266-0.118-2.266-0.88-0.332-1.406 0.566-1.406 0.566-2.168-1.054-0.958-1.66-0.958-1.66 1.622 0.372 0.664-1.036 0.664-1.036l-0.996-0.136-1.172-0.644 0.058-0.39 0.898 0.098 0.098-0.684-1.054-0.488 0.312-0.782c1.212-1.72-2.872-2.578-2.872-2.578-0.644-5.178-5.51-3.322-6.622-2.794-0.88-0.41-1.798-0.704-2.794-0.84-2.48-0.332-4.844 0.312-6.74 1.64l-0.586-0.078c0.234-0.958-0.626-1.758-0.88-1.992 1.602 1.29 2.364-0.292 2.364-0.292 2.344-0.372-0.118-2.228-0.118-2.228-0.86-0.332-1.406 0.586-1.406 0.586-2.148-1.074-0.938-1.68-0.938-1.68 1.602 0.372 0.644-1.016 0.644-1.016l-0.976-0.136-1.172-0.626 0.058-0.43 0.88 0.118 0.098-0.684-1.054-0.488 0.332-0.782c0.956-1.38-1.456-2.18-2.448-2.442 15.136 0 34.020 0 52.538 0v80.936h62.748v-80.936c5.96 0 9.864 0 10.822 0 6.486 0 7.19 0 10.588-3.028 0.344-0.304 2.080-2.136 4.754-4.998 5.392-5.156 14.146-13.566 23.968-23.152h93.082v140.93h-26.334v126.964h-236.166v-141.326c9.83 3.912 11.506-5.486 11.506-5.486zM282.154 540.784h62.748v-81.952h-62.748v81.952zM282.154 430.662h62.748v-81.932h-62.748v81.932zM186.058 540.784h62.748v-81.952h-62.748v81.952zM344.902 540.784h-62.748v-81.952h62.748v81.952zM341.698 463.014h-56.34v73.59h56.338v-73.59h0.002zM337.948 463.014h3.75v73.59h-24.36zM285.358 463.014h16.448l-16.448 58.704zM289.968 536.604l20.61-73.59h9.826l-20.61 73.59zM299.794 536.604l20.61-73.59h17.544l-20.61 73.59zM285.358 536.604v-14.886l16.448-58.704h8.772l-20.61 73.59zM248.806 540.784h-62.748v-81.952h62.748v81.952zM245.602 463.014h-56.338v73.59h56.338v-73.59zM241.852 463.014h3.75v73.59h-24.36zM189.262 463.014h16.448l-16.448 58.704zM193.872 536.604l20.61-73.59h9.826l-20.61 73.59zM203.698 536.604l20.61-73.59h17.544l-20.61 73.59zM189.262 536.604v-14.886l16.448-58.704h8.772l-20.61 73.59zM344.902 430.662h-62.748v-81.932h62.748v81.932zM341.698 352.91h-56.34v73.572h56.338v-73.572h0.002zM289.968 426.482l20.61-73.572h9.826l-20.61 73.572zM285.358 352.91h16.448l-16.448 58.686zM337.948 352.91h3.75v73.572h-24.36zM285.358 426.482v-14.886l16.448-58.686h8.772l-20.61 73.572zM299.794 426.482l20.61-73.572h17.544l-20.61 73.572zM186.058 430.662v-80.936c7.562 0 15.056 0 22.214 0 0.058 1.262 0.61 2.384 1.474 3.184h-20.484v73.572h56.338v-73.572h-7.942c0.864-0.802 1.416-1.922 1.474-3.184 3.626 0 6.872 0 9.672 0v80.936h-62.746zM245.602 352.91v73.572h-24.36l20.61-73.572zM189.262 352.91h16.448l-16.448 58.686zM214.696 354.16v5.216c0 1.778 1.446 3.224 3.224 3.224h3.674l-17.896 63.882h-9.826l20.26-72.32h0.564v-0.002zM365.688 610.136h-252.166v-23.696h252.166zM883.090 586.44h14.69v23.696h-264.806v-23.696zM229.856 362.6c1.778 0 3.204-1.446 3.204-3.224v-5.216h1.446c1.218 0 2.322-0.48 3.154-1.25h4.192l-20.61 73.572h-17.542l17.896-63.882h8.26zM214.132 354.16l-20.26 72.32h-4.61v-14.886l16.448-58.686h4.036c0.83 0.77 1.934 1.25 3.154 1.25l1.232 0.002zM365.688 494.954h267.286v244.722h-267.286v-244.722zM477.628 530.822v81.932h43.076v-81.932h-43.076zM600.78 612.754v-81.932h-43.076v81.932h43.076zM499.332 724.186c24.44 0 44.248-19.81 44.248-44.228 0-24.44-19.81-44.248-44.248-44.248-24.42 0-44.228 19.81-44.228 44.248-0.002 24.418 19.808 44.228 44.228 44.228zM394.346 612.754h43.076v-81.932h-43.076v81.932zM606.64 318.54h276.44v-17.876h-276.44v17.876zM317.070 300.672h74.952v17.876h-93.082c5.828-5.69 12.026-11.788 18.13-17.876zM606.64 459.478h-214.618v-158.806h44.56v109.926h125.498v-109.926h44.56v17.874zM738.916 540.784h-62.748v-81.952h62.748v81.952zM735.712 521.718v-58.704h-56.342v73.59h56.338v-14.886h0.004zM679.372 536.604v-73.59h3.77l20.61 73.59zM721.296 536.604l-20.63-73.59h9.846l20.61 73.59zM735.712 463.014v58.704l-16.448-58.704zM710.512 463.014h8.752l16.448 58.704v14.886h-4.59zM703.752 536.604l-20.61-73.59h17.524l20.63 73.59zM835.012 540.784h-62.748v-81.952h62.748v81.952zM831.808 521.718v-58.704h-56.342v73.59h56.338v-14.886h0.004zM817.39 536.604l-20.628-73.59h9.826l20.63 73.59zM831.808 463.014v58.704l-16.43-58.704zM775.468 536.604v-73.59h3.77l20.61 73.59zM799.848 536.604l-20.61-73.59h17.524l20.628 73.59zM806.588 463.014h8.79l16.43 58.704v14.886h-4.59zM738.916 348.73v81.932h-62.748v-81.932h62.748zM679.372 426.482h56.338v-73.572h-56.342v73.572h0.004zM735.712 352.91v58.686l-16.448-58.686zM710.512 352.91l20.61 73.572h-9.826l-20.63-73.572zM703.752 426.482h-24.38v-73.572h3.77zM700.666 352.91l20.63 73.572h-17.544l-20.61-73.572zM719.264 352.91l16.448 58.686v14.886h-4.59l-20.61-73.572zM835.012 430.662h-62.748v-81.932h62.748v81.932zM831.808 411.596v-58.686h-56.342v73.572h56.338v-14.886h0.004zM831.808 352.91v58.686l-16.43-58.686zM817.39 426.482l-20.628-73.572h9.826l20.63 73.572zM775.468 426.482v-73.572h3.77l20.61 73.572zM799.848 426.482l-20.61-73.572h17.524l20.628 73.572zM806.588 352.91h8.79l16.43 58.686v14.886h-4.59zM394.346 530.822h43.076v81.932h-43.076v-81.932zM435.234 535.002h-38.68v73.572h38.68v-73.572zM413.276 608.574h-16.722v-73.572h2.578zM432.070 608.574h-6.74l-14.164-73.572h6.76zM423.944 535.002h11.29v58.686zM435.234 593.688v14.886h-3.164l-14.144-73.572h6.018zM425.33 608.574h-12.054l-14.144-73.572h12.034zM520.704 612.754h-43.076v-81.932h43.076v81.932zM507.204 535.002h-27.388v73.572h38.68v-73.572h-11.292zM515.33 608.574h-6.738l-14.144-73.572h6.74zM496.558 608.574h-16.742v-73.572h2.578zM518.496 593.688l-11.292-58.686h11.292zM508.592 608.574h-12.034l-14.164-73.572h12.054zM518.496 593.688v14.886h-3.166l-14.142-73.572h6.016zM557.704 530.822h43.076v81.932h-43.076v-81.932zM598.572 535.002h-38.68v73.572h38.68v-73.572zM576.634 608.574h-16.742v-73.572h2.578zM587.28 535.002h11.292v58.686zM595.408 608.574h-6.74l-14.144-73.572h6.74zM598.572 593.688v14.886h-3.164l-14.144-73.572h6.016zM588.668 608.574h-12.034l-14.164-73.572h12.054zM998.598 288.402c1.3 3.984 2.566 7.984 3.772 12.012 0.026 0.086 0.056 0.172 0.082 0.258h-71.394c-0.432-6.6-0.086-8.634-0.086-8.634l-14.964 3.048c1.51 1.416 2.642 3.344 3.48 5.588h-372.978v-7.814h12.874v-7.794h12.58v-11.878h421.404c0.050 0.14 0.096 0.282 0.146 0.42 1.506 4.142 2.948 8.31 4.338 12.5 0.254 0.76 0.496 1.528 0.746 2.294zM97.776 273.186c0 1.542 0 3.094 0 4.65 0 7.656 0 15.436 0 22.838h-7.736l0.858-9.69c-0.704-8.458-0.274-10.94-0.274-10.94l-14.964 3.048c3.852 3.614 5.256 10.53 5.55 17.582h-59.664c0.024-0.082 0.052-0.162 0.076-0.242 1.354-4.488 2.758-8.95 4.218-13.384 0.032-0.098 0.064-0.198 0.096-0.296 1.46-4.42 2.98-8.812 4.56-13.178 0.046-0.128 0.088-0.258 0.134-0.386l67.146-0.002zM426.698 285.062h12.58v7.794h12.874v7.814h-135.082c6.638-6.62 13.158-13.222 18.942-19.246 0.924-0.032 8.248-3.48 16.996-8.24h73.688v11.878h0.002zM954.87 190.942c-0.006-0.008-0.010-0.016-0.014-0.026 0.004 0.010 0.008 0.018 0.014 0.026zM894.702 107.912c-0.062-0.070-0.122-0.14-0.184-0.208 0.062 0.068 0.122 0.138 0.184 0.208zM571.964 273.186h-218.956c9.928-5.404 21.676-12.494 27.982-18.206 0.678 1.050 1.514 1.7 2.436 1.7 2.246 0 4.044-3.654 4.044-8.146 0-2.936-0.776-5.492-1.934-6.926 0-1.802 0-3.616 0-5.362 0-0.026 0-0.052 0-0.078h5.236c0 0 0-5.274 0-9.26s-1.758-3.986-5.216-3.986c-3.478 0-8.85 0-8.85 0l-0.24 1.23h-4.82l-0.496 1.816h-8.41c0.384-1.698 0.604-3.46 0.604-5.274 0-13.168-10.666-23.834-23.834-23.834-13.186 0-23.854 10.666-23.854 23.834 0 1.816 0.22 3.576 0.604 5.274h-9.004l-0.312-1.816h-128.544l-0.338 1.938c0-0.040 0.006-0.080 0.006-0.12h-9.12c0.384-1.698 0.604-3.46 0.604-5.274 0-13.168-10.666-23.834-23.834-23.834s-23.854 10.666-23.854 23.834c0 1.816 0.22 3.576 0.604 5.274h-8.696l-0.426-1.816h-5.25l-0.28-1.23c0 0-6.76 0-10.236 0-3.458 0-5.236 0-5.236 3.986s0 9.26 0 9.26h5.43c0 0.028 0 0.050 0 0.078 0 7.276 0 17.224 0 28.15 0 2.874 0 5.814 0 8.792h-67.142c0.012-0.032 0.024-0.062 0.036-0.094 10.522-28.942 23.59-56.66 38.918-82.898v2.856h116.588v-14.652h-109.472c1.946-3.134 3.912-6.258 5.922-9.346 0.054-0.082 0.108-0.164 0.162-0.246 2.29-3.512 4.622-6.994 6.994-10.446 0.056-0.080 0.112-0.16 0.166-0.24 2.382-3.46 4.804-6.89 7.268-10.286 0.042-0.056 0.082-0.114 0.124-0.17 2.484-3.422 5.010-6.814 7.576-10.172 0.022-0.028 0.044-0.056 0.064-0.084 10.396-13.6 21.458-26.662 33.136-39.142h747.786c0.176 0.188 0.346 0.384 0.522 0.572 2.586 2.772 5.142 5.572 7.668 8.4 0.086 0.096 0.176 0.19 0.262 0.288h-96.148l-0.586 2.832-0.058 11.82h109.318c1.208 1.462 2.428 2.912 3.62 4.386 0.406 0.504 0.812 1.006 1.216 1.51 2.244 2.8 4.458 5.624 6.644 8.472 0.416 0.542 0.832 1.082 1.244 1.624 2.162 2.838 4.29 5.702 6.394 8.588 0.406 0.558 0.816 1.114 1.22 1.674 2.094 2.896 4.154 5.818 6.188 8.76 0.388 0.56 0.78 1.118 1.164 1.68 2.038 2.972 4.038 5.97 6.014 8.986 0.356 0.544 0.716 1.082 1.070 1.626 1.916 2.95 3.794 5.926 5.65 8.918h-41.714v14.652h50.466c1.642 2.854 3.274 5.716 4.862 8.606 0.12 0.218 0.244 0.432 0.362 0.648 12.396 22.616 23.134 46.27 32.050 70.796 0.010 0.028 0.022 0.056 0.032 0.084l-421.396-0.006zM331.892 178.398h-116.57v14.652h116.57v-14.652zM477.608 178.398h-116.57v14.652h116.57v-14.652zM623.324 178.398h-116.57v14.652h116.57v-14.652zM769.060 178.398h-116.588v14.652h116.588v-14.652zM796.996 263.964l54.348-0.020 5.958-14.632h-60.248l-0.058 14.652zM797.094 240.326h63.882l5.958-14.652h-69.782l-0.058 14.652zM797.192 216.688h73.396l5.958-14.652h-79.296l-0.058 14.652zM797.288 193.050h82.928l5.958-14.652h-88.828l-0.058 14.652zM797.366 169.45h92.462l5.958-14.652h-98.342l-0.078 14.652zM797.524 131.162l-0.040 14.652h101.956l5.978-14.652h-107.894zM947.71 179.032c0.254 0.41 0.51 0.816 0.764 1.226 0.274 0.446 0.534 0.902 0.808 1.348-0.526-0.858-1.046-1.718-1.572-2.574zM309.014 236.244l-0.036-0.21c0.026 0.070 0.054 0.14 0.080 0.21h-0.044zM71.48 187.030c1.414-2.38 2.814-4.766 4.266-7.122 0.034-0.056 0.070-0.112 0.104-0.168 0.116-0.188 0.238-0.37 0.354-0.558-1.596 2.594-3.16 5.22-4.724 7.848zM186.174 178.398v14.652h-116.588v-2.872c0.062-0.104 0.126-0.204 0.186-0.308 0.56-0.956 1.144-1.888 1.708-2.838 1.562-2.628 3.126-5.254 4.724-7.848 0.048-0.078 0.094-0.16 0.144-0.238 0.112-0.18 0.218-0.366 0.33-0.548h109.496zM215.32 193.040h116.56v-14.652h-116.56v14.652zM361.040 193.040h116.56v-14.652h-116.56v14.652zM506.76 193.040h116.56v-14.652h-116.56v14.652zM652.48 193.040h116.58v-14.652h-116.58v14.652zM905.594 193.050v-14.652h41.73c0.13 0.21 0.256 0.422 0.386 0.634 0.528 0.856 1.046 1.718 1.57 2.574 0.692 1.132 1.388 2.264 2.074 3.4 1.182 1.958 2.344 3.932 3.5 5.91 0.006 0.008 0.010 0.016 0.014 0.026 0.412 0.704 0.836 1.4 1.244 2.108h-50.518zM138.118 98.264h-0.020c0.138-0.146 0.28-0.288 0.416-0.434 2.6-2.772 5.232-5.514 7.892-8.226 0.296-0.3 0.588-0.604 0.882-0.904 2.746-2.788 5.526-5.542 8.334-8.266 0.22-0.214 0.438-0.43 0.658-0.644 2.92-2.822 5.874-5.608 8.86-8.36 0.118-0.11 0.234-0.22 0.354-0.328 31.366-28.852 66.34-53.84 104.168-74.208 0.362-0.196 0.73-0.382 1.094-0.576 3.352-1.794 6.722-3.558 10.118-5.278 0.676-0.344 1.362-0.674 2.040-1.014 3.094-1.552 6.202-3.080 9.332-4.57 0.902-0.43 1.812-0.844 2.716-1.268 2.924-1.37 5.858-2.724 8.81-4.040 1.074-0.48 2.158-0.944 3.236-1.416 2.8-1.226 5.61-2.434 8.436-3.612 1.22-0.508 2.446-1 3.67-1.5 2.706-1.102 5.422-2.188 8.152-3.246 1.336-0.516 2.676-1.020 4.016-1.528 2.64-0.996 5.288-1.976 7.95-2.93 1.434-0.514 2.872-1.016 4.312-1.518 2.588-0.902 5.184-1.786 7.79-2.646 1.52-0.502 3.046-0.996 4.572-1.484 2.546-0.814 5.102-1.608 7.664-2.384 1.596-0.482 3.194-0.96 4.796-1.426 2.518-0.734 5.046-1.448 7.58-2.144 1.658-0.456 3.316-0.908 4.982-1.348 2.498-0.66 5.008-1.296 7.522-1.918 1.716-0.426 3.43-0.85 5.152-1.258 2.482-0.588 4.974-1.148 7.468-1.698 1.768-0.39 3.536-0.784 5.31-1.156 2.474-0.52 4.96-1.008 7.446-1.49 1.808-0.352 3.612-0.708 5.426-1.040 2.482-0.454 4.976-0.874 7.472-1.292 1.832-0.308 3.66-0.624 5.498-0.912 2.5-0.392 5.014-0.744 7.526-1.1 1.848-0.262 3.692-0.534 5.546-0.776 2.53-0.33 5.072-0.616 7.614-0.908 1.852-0.214 3.698-0.442 5.556-0.634 2.586-0.268 5.186-0.492 7.784-0.722 1.824-0.162 3.642-0.344 5.472-0.486 2.704-0.21 5.422-0.37 8.14-0.538 1.736-0.108 3.466-0.24 5.208-0.33 2.996-0.156 6.008-0.254 9.018-0.358 1.47-0.050 2.934-0.13 4.408-0.168 4.49-0.116 8.994-0.178 13.512-0.178s9.020 0.062 13.51 0.178c1.484 0.038 2.956 0.118 4.436 0.168 3 0.104 6.002 0.202 8.988 0.356 1.756 0.092 3.502 0.224 5.254 0.332 2.7 0.168 5.402 0.326 8.088 0.536 1.85 0.144 3.69 0.328 5.534 0.492 2.574 0.228 5.152 0.448 7.716 0.716 1.884 0.196 3.756 0.428 5.634 0.644 2.512 0.29 5.028 0.572 7.53 0.898 1.886 0.246 3.76 0.524 5.64 0.79 2.478 0.35 4.958 0.7 7.426 1.086 1.874 0.294 3.736 0.614 5.604 0.928 2.456 0.412 4.914 0.826 7.358 1.274 1.852 0.338 3.696 0.702 5.54 1.062 2.446 0.476 4.89 0.956 7.324 1.466 1.816 0.38 3.624 0.782 5.434 1.182 2.45 0.542 4.898 1.092 7.336 1.668 1.766 0.418 3.526 0.854 5.284 1.29 2.466 0.612 4.928 1.234 7.38 1.882 1.712 0.452 3.416 0.916 5.12 1.386 2.486 0.684 4.964 1.382 7.434 2.104 1.648 0.48 3.294 0.972 4.934 1.468 2.516 0.762 5.022 1.54 7.52 2.34 1.572 0.502 3.142 1.012 4.708 1.528 2.558 0.846 5.106 1.712 7.646 2.598 1.486 0.518 2.972 1.038 4.452 1.568 2.61 0.936 5.208 1.898 7.8 2.876 1.388 0.524 2.778 1.046 4.16 1.582 2.68 1.038 5.346 2.106 8.004 3.188 1.27 0.516 2.542 1.028 3.808 1.556 2.78 1.158 5.544 2.348 8.3 3.554 1.12 0.49 2.244 0.972 3.36 1.47 2.91 1.298 5.802 2.632 8.684 3.982 0.946 0.442 1.896 0.876 2.838 1.324 3.094 1.472 6.164 2.984 9.222 4.518 0.71 0.356 1.428 0.702 2.136 1.062 3.372 1.71 6.718 3.46 10.046 5.24 0.384 0.206 0.772 0.404 1.156 0.61 37.848 20.382 72.84 45.388 104.22 74.262 0.036 0.034 0.072 0.068 0.108 0.102 3.070 2.828 6.106 5.692 9.106 8.592 0.146 0.142 0.29 0.286 0.438 0.428 2.886 2.796 5.74 5.626 8.558 8.488 0.228 0.232 0.454 0.466 0.68 0.698 2.728 2.78 5.426 5.59 8.090 8.432 0.114 0.122 0.234 0.24 0.348 0.364l-747.78-0.008zM704.826 745.342c0-16.546 13.402-29.968 29.968-29.968 2.228 0 4.376 0.234 6.446 0.704 4.552-4.494 10.784-7.248 17.68-7.248 7.346 0 13.968 3.146 18.558 8.186 4.512-4.2 10.55-6.778 17.21-6.778 6.974 0 13.304 2.852 17.876 7.444 4.552-4.59 10.882-7.444 17.876-7.444 11.448 0 21.098 7.638 24.166 18.090 3.556-1.934 7.618-3.008 11.956-3.008 13.89 0 25.162 11.252 25.162 25.162 0 13.89-11.272 25.162-25.162 25.162-0.918 0-1.836-0.040-2.754-0.136-2.734 7.286-8.772 12.952-16.292 15.198-3.36 14.026-15.98 24.42-31.022 24.42-8.674 0-16.546-3.458-22.31-9.104-5.314 2.696-11.312 4.2-17.66 4.2-20.238 0-36.922-15.316-39.052-35.008-0.88 0.078-1.778 0.118-2.676 0.118-16.568-0.002-29.97-13.424-29.97-29.99zM734.3 827.58c0-28.896-23.424-52.32-52.32-52.32s-52.32 23.424-52.32 52.32c0 28.896 23.424 52.32 52.32 52.32s52.32-23.424 52.32-52.32zM61.166 369.574l-0.078 1.914c1.79 0.012 6.002-3.874 9.038-6.934 0.406 0.468 0.802 1.068 1.178 1.854 0 0-0.366-1.364-0.306-2.742 1.512-1.556 2.572-2.728 2.572-2.728-1.896 7.6 0.45 18.012 0.45 18.012l1.348-1.7c-2.132-1.944-1.074-10.346 0.102-16.71 1.444-0.212 3.592-0.384 5.662 0.028 0.778-0.55 1.6-1.034 2.44-1.486 0.96 5.594-1.502 5.608-1.502 5.608l3.712 23.482 4.454-2.892c-1.986-12.9-1.794-22.008-0.746-28.396 2.618-0.578 5.376-0.73 8.19-0.34 2.442 0.332 4.748 1.036 6.858 2.032 0.040-0.016 0.096-0.040 0.142-0.058-0.846 10.524-3.286 30.066-3.286 30.066l1.308 1.036c-1.138-2.924 4.59-25.846 6.82-34.492 0.338-0.124 0.708-0.238 1.152-0.32 0 0-0.746-0.516-0.744-1.25 0.048-0.188 0.094-0.358 0.136-0.518 0.060-0.118 0.128-0.238 0.238-0.362 0 0-0.052-0.030-0.124-0.076 0.128-0.486 0.202-0.764 0.202-0.764 2.324 3.614 5.548 27.252 5.548 27.252l3.556-2.11c-3.574-0.508-6.446-25.534-6.446-25.534-0.632-0.168-1.66-0.792-2.942-1.72 0.882 0 1.836 0 2.846 0 0.052 0.088 0.104 0.17 0.154 0.274 0 0-0.028-0.116-0.058-0.274 5.328 0 12.36 0 20.486 0 0.992 0.262 3.404 1.062 2.448 2.442l-0.332 0.782 1.054 0.488-0.098 0.684-0.88-0.118-0.058 0.43 1.172 0.626 0.976 0.136c0 0 0.958 1.386-0.644 1.016 0 0-1.212 0.606 0.938 1.68 0 0 0.546-0.918 1.406-0.586 0 0 2.462 1.856 0.118 2.228 0 0-0.762 1.582-2.364 0.292 0.254 0.234 1.114 1.036 0.88 1.992l0.586 0.078c1.894-1.328 4.258-1.974 6.74-1.64 0.996 0.136 1.914 0.43 2.794 0.84 1.114-0.528 5.978-2.384 6.622 2.794 0 0 4.082 0.86 2.872 2.578l-0.312 0.782 1.054 0.488-0.098 0.684-0.898-0.098-0.058 0.39 1.172 0.644 0.996 0.136c0 0 0.958 1.406-0.664 1.036 0 0-1.212 0.606 0.958 1.66 0 0 0.528-0.898 1.406-0.566 0 0 2.462 1.876 0.118 2.266 0 0-0.762 1.562-2.384 0.274 0.352 0.292 1.68 1.562 0.332 2.852 0 0 2.52 0.976 0.86 2.422 0 0 2.344 1.934 0.762 4.2-1.602 2.246-3.242 3.868-4.454 2.286 0 0-0.43 2.442-2.442 3.242 0.234 0.294 0.664 0.626 1.446 1.016 0 0 0.684-1.134 1.778-0.722 0 0 3.126 2.384 0.156 2.852 0 0-0.976 2.012-3.028 0.352 0.45 0.372 2.148 1.992 0.43 3.634 0 0 3.184 1.23 1.094 3.068 0 0 2.97 2.442 0.976 5.314-2.032 2.852-4.122 4.904-5.666 2.91 0 0-0.958 5.49-6.408 4.22-0.136 0.528 0.214 1.348 2.364 2.402 0 0 1.016-1.66 2.598-1.036 0 0 4.572 3.438 0.214 4.162 0 0-1.446 2.91-4.396 0.528 0.644 0.528 3.106 2.892 0.606 5.274 0 0 4.668 1.816 1.602 4.494 0 0 4.336 3.556 1.406 7.756-2.95 4.18-5.998 7.17-8.244 4.24 0 0-1.676 9.396-11.506 5.484-0.47-0.188-0.938-0.37-1.446-0.62 0 0-3.204 8.108-9.768-0.468 0 0-0.88 1.504-2.344 2.344 0.8 1.036 1.738 2.93 0.274 5.040-2.208 3.164-4.532 5.43-6.252 3.224 0 0-1.368 7.814-9.806 3.672 0 0-2.442 6.134-7.404-0.352 0 0-1.954 3.34-4.766 1.758 0 0-4.18-0.020-2.872-2.814 0 0-4.434 2.462-5.744-0.782 0 0-2.52 1.778-3.556-1.152 0 0-4.59-0.566-3.204-5.080-1.64-0.078-3.692-1.212-6.192-4.454 0 0-2.93 4.962-7.112 2.638 0 0-6.252-0.040-4.278-4.22 0 0-6.662 3.672-8.596-1.172 0 0-3.79 2.656-5.334-1.738 0 0-8.478-1.016-3.692-10.14 0 0-4.786 0.118-3.692-3.242 0 0-3.106-2.774 0.274-5.528 0 0-2.892-3.282-1.094-7.482-0.41-0.214-0.704-0.586-0.468-1.29 0 0-1.484-1.308 0.118-2.638 0 0-1.816-2.070 0.040-4.494 0 0-0.040-0.176-0.040-0.43-0.45 0.118-0.976 0.078-1.562-0.234 0 0-2.97-0.020-2.032-2.012 0 0-3.164 1.758-4.082-0.566 0 0-1.816 1.27-2.56-0.82 0 0-4.044-0.488-1.758-4.844 0 0-2.286 0.058-1.758-1.544 0 0-1.484-1.328 0.136-2.638 0 0-1.836-2.090 0.020-4.512 0 0-0.566-2.754 3.496-3.516 0 0-1.426-0.976-0.39-2.168 0 0-2.168-1.134-0.372-3.048 0 0 1.896-2.344 3.184 0.372 0 0-0.664-2.442 0.996-2.246 0 0 1.562-0.41 2.988-0.136 1.758-1.25 3.946-1.876 6.232-1.68 0.118-0.196 0.292-0.41 0.566-0.626 0 0-1.836-2.070 0.020-4.494 0 0-0.566-2.734 3.478-3.496 0 0-1.406-0.958-0.372-2.148 0 0-2.168-1.114-0.39-3.028 0 0 1.894-2.324 3.164 0.372 0 0-0.644-2.422 0.996-2.246 0 0 1.544-0.41 2.97-0.118 1.894-1.308 4.24-1.974 6.7-1.64 0.976 0.136 1.914 0.43 2.774 0.84 1.134-0.508 5.958-2.384 6.584 2.774 0 0 3.36 0.704 3.068 2.11 1.124-0.888 2.9-1.796 4.62-0.612-6.75 8.574-8.122 5.784-8.122 5.784zM89.356 331.264c0 0 3.812 3.702 8.42 7.938 0 1.194 0 2.152 0 2.806 0 0.424 0 0.822 0 1.206-0.62-1.036-1.348-1.672-1.914-0.386 0 0-4.526 2.778-6.374 14.054-1.046 6.388-1.238 15.496 0.746 28.396l-4.454 2.892-3.712-23.482c0 0 2.462-0.016 1.502-5.608-0.020-0.12-0.034-0.226-0.056-0.35 0 0 4.532-14.202 3.81-15.61 0 0-1.074-6.74-4.024-4.766l-6.232 14.69c0 0-0.824 3.308-1.598 7.494-1.176 6.364-2.234 14.766-0.102 16.71l-1.348 1.7c0 0-2.344-10.412-0.45-18.012 0 0-1.060 1.174-2.572 2.728-0.278 0.286-0.568 0.58-0.872 0.888-3.038 3.060-7.248 6.946-9.038 6.934l0.078-1.914c0 0 1.372 2.79 8.116-5.788 1.046-1.33 2.208-2.91 3.528-4.84 0 0 6.778-19.048 7.014-22.778 0 0-0.8-11.37-0.332-13.518 0 0 2.174-11.148 1.722-21.978-0.294-7.052-1.698-13.968-5.55-17.582l14.964-3.048c0 0-0.43 2.482 0.274 10.94l-0.858 9.69-1.564 17.64c-0.004 0.002-0.432 10.044 0.876 12.954zM119.48 376.978l-3.556 2.11c0 0-3.224-23.638-5.548-27.252 0 0-0.074 0.278-0.202 0.764-0.034 0.128-0.074 0.28-0.114 0.438-0.042 0.16-0.086 0.33-0.136 0.518-0.118 0.45-0.252 0.972-0.408 1.57-2.228 8.646-7.958 31.568-6.82 34.492l-1.308-1.036c0 0 2.44-19.542 3.286-30.066 0.272-3.378 0.38-5.834 0.19-6.408l-2.32-2.39c0.106 0.002 0.198 0.008 0.308 0.008 1.034 0 3.56 0 7.236 0 1.28 0.928 2.31 1.552 2.942 1.72 0.004 0 2.876 25.024 6.45 25.532zM881.468 452.932c0 0-8.478-1.016-3.692-10.14 0 0-4.806 0.118-3.692-3.242 0 0-3.106-2.774 0.274-5.528 0 0-2.892-3.282-1.094-7.482-0.41-0.214-0.704-0.586-0.468-1.29 0 0-1.504-1.328 0.118-2.638 0 0-1.836-2.090 0.040-4.494 0 0-0.040-0.176-0.040-0.43-0.45 0.118-0.976 0.078-1.562-0.234 0 0-2.97-0.020-2.032-2.012 0 0-3.164 1.758-4.082-0.566 0 0-1.816 1.27-2.56-0.82 0 0-4.044-0.488-1.758-4.844 0 0-2.286 0.058-1.758-1.544 0 0-1.484-1.328 0.136-2.638 0 0-1.836-2.090 0.020-4.512 0 0-0.586-2.754 3.496-3.516 0 0-1.426-0.976-0.39-2.168 0 0-2.168-1.134-0.372-3.048 0 0 1.894-2.344 3.184 0.372 0 0-0.664-2.442 0.996-2.246 0 0 1.562-0.41 2.99-0.136 1.758-1.25 3.946-1.876 6.232-1.68 0.118-0.196 0.294-0.41 0.546-0.626 0 0-1.816-2.070 0.040-4.494 0 0-0.566-2.734 3.478-3.496 0 0-1.406-0.958-0.372-2.148 0 0-2.168-1.114-0.39-3.028 0 0 1.894-2.324 3.164 0.372 0 0-0.664-2.422 0.996-2.246 0 0 0.072-0.018 0.176-0.040 0.432-0.094 1.644-0.312 2.794-0.076 1.876-1.308 4.24-1.974 6.682-1.64 0.996 0.136 1.934 0.43 2.794 0.84 1.134-0.508 5.958-2.384 6.584 2.774 0 0 3.36 0.704 3.068 2.11 1.124-0.888 2.9-1.796 4.62-0.612-6.744 8.578-8.116 5.788-8.116 5.788l-0.078 1.914c1.79 0 5.998-3.882 9.036-6.936 0.406 0.468 0.804 1.070 1.18 1.858 0 0-0.366-1.366-0.306-2.746 1.512-1.554 2.572-2.724 2.572-2.724-1.894 7.6 0.45 18.012 0.45 18.012l1.348-1.7c-2.132-1.944-1.074-10.346 0.102-16.71 1.444-0.212 3.592-0.384 5.662 0.028 0.772-0.548 1.588-1.028 2.424-1.478 0.974 5.584-1.486 5.6-1.486 5.6l3.712 23.482 4.454-2.892c-1.984-12.896-1.794-22.004-0.748-28.396 2.618-0.58 5.376-0.73 8.192-0.342 2.442 0.332 4.748 1.036 6.856 2.032 0.040-0.016 0.096-0.040 0.142-0.058-0.846 10.524-3.286 30.066-3.286 30.066l1.308 1.036c-1.14-2.926 4.6-25.882 6.824-34.512 0.338-0.124 0.706-0.236 1.146-0.32 0 0-0.72-0.486-0.754-1.19 0.058-0.222 0.11-0.424 0.158-0.606 0.056-0.102 0.11-0.206 0.206-0.314 0 0-0.044-0.024-0.106-0.064 0.13-0.494 0.204-0.776 0.204-0.776 2.324 3.614 5.528 27.252 5.528 27.252l3.576-2.13c-3.576-0.488-6.446-25.514-6.446-25.514-0.656-0.174-1.744-0.844-3.094-1.832 0.124-0.148 1.89-2.198 3.134 0.366 0 0-0.644-2.402 0.996-2.228 0 0 1.544-0.41 2.97-0.118 1.876-1.328 4.24-1.974 6.7-1.64 0.976 0.136 1.914 0.41 2.774 0.84 1.134-0.528 5.958-2.384 6.604 2.794 0 0 4.044 0.82 2.852 2.54l-0.332 0.782 1.054 0.488-0.098 0.684-0.888-0.122-0.060 0.428 1.172 0.626 0.976 0.136c0 0 0.958 1.386-0.644 1.016 0 0-1.212 0.606 0.938 1.68 0 0 0.546-0.918 1.388-0.586 0 0 2.48 1.856 0.118 2.228 0 0-0.742 1.582-2.344 0.292 0.254 0.214 1.114 1.036 0.88 1.974l0.586 0.098c1.894-1.328 4.258-1.974 6.74-1.64 0.976 0.136 1.914 0.43 2.794 0.84 1.114-0.528 5.978-2.384 6.604 2.794 0 0 4.102 0.86 2.892 2.578l-0.332 0.782 1.054 0.488-0.078 0.684-0.898-0.098-0.078 0.39 1.192 0.644 0.996 0.136c0 0 0.958 1.406-0.684 1.036 0 0-1.192 0.606 0.976 1.66 0 0 0.528-0.898 1.406-0.566 0 0 2.462 1.876 0.118 2.266 0 0-0.782 1.562-2.384 0.274 0.352 0.292 1.68 1.562 0.332 2.852 0 0 2.52 0.976 0.86 2.422 0 0 2.344 1.934 0.762 4.18-1.602 2.266-3.242 3.888-4.454 2.306 0 0-0.43 2.422-2.442 3.242 0.214 0.294 0.664 0.626 1.446 1.016 0 0 0.684-1.134 1.778-0.722 0 0 3.126 2.364 0.136 2.852 0 0-0.976 2.012-3.008 0.352 0.45 0.372 2.148 1.992 0.43 3.634 0 0 3.184 1.23 1.074 3.068 0 0 2.99 2.442 0.996 5.314-2.032 2.852-4.122 4.904-5.666 2.91 0 0-0.958 5.49-6.408 4.22-0.136 0.528 0.196 1.348 2.364 2.402 0 0 1.016-1.66 2.598-1.036 0 0 4.552 3.438 0.214 4.162 0 0-1.446 2.91-4.396 0.508 0.626 0.546 3.106 2.91 0.606 5.294 0 0 4.67 1.816 1.582 4.494 0 0 4.356 3.556 1.426 7.756-2.95 4.18-5.998 7.15-8.264 4.24 0 0-1.798 10.354-12.932 4.864 0 0-3.204 8.108-9.768-0.468 0 0-0.88 1.504-2.364 2.344 0.82 1.036 1.758 2.93 0.292 5.040-2.208 3.164-4.532 5.43-6.252 3.224 0 0-1.368 7.814-9.808 3.672 0 0-2.442 6.134-7.404-0.352 0 0-1.954 3.34-4.766 1.758 0 0-4.18-0.020-2.872-2.814 0 0-4.454 2.462-5.744-0.782 0 0-2.54 1.778-3.574-1.152 0 0-4.572-0.566-3.184-5.098-1.64-0.058-3.712-1.192-6.192-4.434 0 0-2.93 4.962-7.13 2.638 0 0-6.232-0.040-4.278-4.22 0 0-6.642 3.672-8.576-1.172 0 0-2.020 1.406-3.712 0.458-0.624-0.352-1.206-1.014-1.622-2.2zM928.822 330.308c0 0-0.43 10.042 0.86 12.952 0 0 13.75 13.34 20.602 18.35 1.35 0.988 2.438 1.658 3.094 1.832 0 0 2.872 25.026 6.446 25.514l-3.576 2.13c0 0-3.204-23.638-5.528-27.252 0 0-0.074 0.28-0.204 0.776-0.030 0.112-0.064 0.244-0.098 0.378-0.048 0.184-0.1 0.384-0.158 0.606-0.114 0.438-0.244 0.936-0.392 1.51-2.226 8.63-7.964 31.586-6.824 34.512l-1.308-1.036c0 0 2.44-19.542 3.286-30.066 0.272-3.378 0.38-5.834 0.19-6.408l-5.822-5.998c0 0-1.992-6.036-3.184-3.302 0 0-4.526 2.786-6.374 14.074-1.046 6.392-1.236 15.5 0.748 28.396l-4.454 2.892-3.712-23.482c0 0 2.46-0.016 1.486-5.6-0.022-0.122-0.034-0.232-0.060-0.358 0 0 4.532-14.202 3.828-15.608 0 0-1.074-6.74-4.044-4.766l-6.212 14.69c0 0-0.824 3.308-1.598 7.494-1.176 6.364-2.234 14.766-0.102 16.71l-1.348 1.7c0 0-2.344-10.412-0.45-18.012 0 0-1.060 1.172-2.572 2.724-0.278 0.286-0.57 0.582-0.874 0.888-3.038 3.056-7.246 6.936-9.036 6.936l0.078-1.914c0 0 1.372 2.79 8.116-5.788 1.046-1.33 2.208-2.91 3.528-4.84 0 0 6.76-19.048 7.014-22.778 0 0-0.802-11.37-0.332-13.518 0 0 4.226-21.724-0.348-33.972-0.838-2.244-1.97-4.172-3.48-5.588l14.964-3.048c0 0-0.346 2.034 0.086 8.634 0.048 0.718 0.1 1.474 0.168 2.306l-2.404 27.33zM452.152 300.672v-7.814h-12.874v-7.796h-12.58v-11.876h145.266v11.876h-12.58v7.796h-12.874v7.814h-47.178zM870.586 216.688h-73.394l0.058-14.652h79.294zM880.218 193.050h-82.93l0.060-14.652h88.828zM889.83 169.45h-92.464l0.080-14.65h98.342zM797.562 122.174l0.058-11.82 0.586-2.832h96.154c0.052 0.060 0.104 0.12 0.158 0.18 0.062 0.070 0.122 0.14 0.184 0.208 0.26 0.294 0.516 0.59 0.774 0.884 1.642 1.858 3.28 3.72 4.902 5.594 2.228 2.574 4.436 5.166 6.602 7.786h-109.418zM851.344 263.944l-54.348 0.020 0.058-14.652h60.248zM797.484 145.812l0.040-14.65h107.894l-5.978 14.65zM860.976 240.326h-63.882l0.058-14.652h69.782zM641.512 739.678v35.788h-284.362v-35.788h275.824zM454.224 404.992h-9.846l20.63-98.714h9.826zM439.786 385.008v-78.73h16.45zM496.128 404.992h-24.382l20.63-98.714h3.752zM444.378 404.992h-4.592v-19.984l16.45-78.73h8.772zM471.746 404.992h-17.522l20.61-98.714h17.542zM562.080 410.598h-125.496v-109.928h125.496v109.928zM492.376 306.278h-52.588v98.712h56.34v-98.714l-3.752 0.002zM551.608 306.278h-49.072v48.81c-0.37-0.21-0.774-0.36-1.23-0.36-1.426 0-2.56 1.134-2.56 2.54 0 1.426 1.134 2.56 2.56 2.56 0.456 0 0.862-0.152 1.23-0.362v45.528h56.34v-98.714l-7.268-0.002zM558.876 404.992h-26.51l19.242-98.714h7.268zM515.996 404.992h-9.164l19.244-98.714h9.162zM502.536 385.008v-25.544c0.77-0.438 1.308-1.234 1.308-2.198 0-0.95-0.54-1.742-1.308-2.178v-48.81h15.354l-15.354 78.73zM532.366 404.992h-16.37l19.242-98.714h16.37zM506.832 404.992h-4.296v-19.984l15.354-78.73h8.186zM503.844 357.266c0 0.964-0.54 1.76-1.308 2.198-0.37 0.21-0.774 0.362-1.23 0.362-1.426 0-2.56-1.134-2.56-2.56 0-1.406 1.134-2.54 2.56-2.54 0.456 0 0.862 0.152 1.23 0.36 0.768 0.438 1.308 1.23 1.308 2.18zM500.484 357.502c-0.45 0-0.84 0.39-0.84 0.84 0 0.468 0.39 0.84 0.84 0.84 0.468 0 0.84-0.372 0.84-0.84 0-0.45-0.372-0.84-0.84-0.84zM500.484 359.182c-0.45 0-0.84-0.372-0.84-0.84 0-0.45 0.39-0.84 0.84-0.84 0.468 0 0.84 0.39 0.84 0.84 0 0.468-0.372 0.84-0.84 0.84zM499.332 635.708c24.44 0 44.248 19.81 44.248 44.248 0 24.42-19.81 44.228-44.248 44.228-24.42 0-44.228-19.81-44.228-44.228-0.002-24.438 19.808-44.248 44.228-44.248zM472.822 690.096h19.086v19.086h18.48v-19.086h19.106v-18.48h-19.106v-19.086h-18.48v19.086h-19.086v18.48zM491.908 652.528h18.48v19.086h19.106v18.482h-19.106v19.086h-18.48v-19.086h-19.086v-18.482h19.086zM632.974 494.954h-267.286v-35.476h267.286zM229.856 362.6h-11.936c-1.778 0-3.224-1.446-3.224-3.224v-5.216h18.364v5.216c0 1.778-1.426 3.224-3.204 3.224zM237.66 352.91c-0.83 0.77-1.934 1.25-3.154 1.25h-21.608c-1.218 0-2.322-0.48-3.154-1.25-0.864-0.802-1.416-1.922-1.474-3.184 11.574 0 22.258 0 30.862 0-0.056 1.262-0.608 2.384-1.472 3.184zM274.97 341.7c14.306-15.316 55.572-60.27 55.572-60.27 3.556 0 4.064 0 5.45 0 0.004 0 0.016-0.004 0.020-0.004-5.784 6.026-12.304 12.626-18.942 19.246-6.104 6.088-12.304 12.186-18.132 17.876-9.82 9.586-18.574 17.996-23.968 23.152zM336.014 281.426c-0.004 0-0.016 0.004-0.020 0.004-1.388 0-1.896 0-5.45 0 0 0-41.266 44.954-55.572 60.27-2.674 2.862-4.41 4.694-4.754 4.998-3.4 3.028-4.102 3.028-10.588 3.028-0.958 0-4.862 0-10.822 0-2.8 0-6.046 0-9.672 0-8.604 0-19.288 0-30.862 0-7.158 0-14.652 0-22.214 0-18.518 0-37.4 0-52.538 0-8.126 0-15.158 0-20.486 0-0.032 0-0.064 0-0.096 0-1.010 0-1.964 0-2.846 0-3.676 0-6.202 0-7.236 0-0.11 0-0.204-0.006-0.308-0.008-4.574-0.074-4.77-1.768-4.77-6.502 0-0.384 0-0.782 0-1.206 0-0.656 0-1.612 0-2.806 0-6.77 0-21.642 0-38.53 0-7.4 0-15.182 0-22.838h222.922v-13.44h-222.926c0-10.926 0-20.876 0-28.15 0-0.028 0-0.050 0-0.078h13.050l-2.728-12.014h5.25l0.426 1.816h-0.406c0 16.918 14.476 30.71 32.352 30.71 17.812 0 32.276-13.728 32.344-30.59l0.338-1.938h128.544l0.312 1.816h-0.096c0 3.528 0.662 6.906 1.82 10.066l0.036 0.21h0.044c4.46 11.88 16.386 20.434 30.45 20.434 17.856 0 32.352-13.792 32.352-30.71h-0.71l0.496-1.816h4.82l-2.34 12.014h11.408c0 0.026 0 0.052 0 0.078 0 1.748 0 3.56 0 5.362-0.614-0.76-1.332-1.222-2.11-1.222-2.228 0-4.024 3.654-4.024 8.146 0 2.636 0.628 4.958 1.588 6.448-6.306 5.714-18.052 12.804-27.982 18.206-8.75 4.762-16.072 8.21-16.996 8.242zM189.984 342.674c0 0.626 0.528 1.152 1.172 1.152h41.864c0.644 0 1.172-0.528 1.172-1.152v-59.876c0-0.644-0.528-1.152-1.172-1.152h-41.864c-0.644 0-1.172 0.508-1.172 1.152 0 0 0 59.876 0 59.876zM261.484 344.998c3.77 0 5.45 0 7.854-2.618 2.208-2.384 49.074-60.736 49.074-60.736h-70.25v63.354c0 0 9.572 0 13.322 0zM135.148 328.178h11.39c0.782 0 1.406-0.626 1.406-1.388v-11.038h11.038c0.762 0 1.388-0.626 1.388-1.406v-11.39c0-0.782-0.626-1.406-1.388-1.406h-11.038v-11.038c0-0.762-0.626-1.386-1.406-1.386h-11.39c-0.782 0-1.406 0.626-1.406 1.386v11.038h-11.018c-0.782 0-1.406 0.626-1.406 1.406v11.39c0 0.782 0.626 1.406 1.406 1.406h11.018v11.038c0 0.762 0.624 1.388 1.406 1.388zM248.162 281.644h70.25c0 0-46.866 58.354-49.074 60.736-2.402 2.618-4.084 2.618-7.854 2.618-3.75 0-13.324 0-13.324 0v-63.354h0.002zM191.156 281.644h41.864c0.644 0 1.172 0.508 1.172 1.152v59.876c0 0.626-0.528 1.152-1.172 1.152h-41.864c-0.644 0-1.172-0.528-1.172-1.152v-59.876c0-0.644 0.528-1.152 1.172-1.152zM376.466 224.15l0.24-1.23c0 0 5.372 0 8.85 0 3.458 0 5.216 0 5.216 3.986s0 9.26 0 9.26h-16.644l2.338-12.016zM133.742 315.754h-11.018c-0.782 0-1.406-0.626-1.406-1.406v-11.39c0-0.782 0.626-1.406 1.406-1.406h11.018v-11.038c0-0.762 0.626-1.386 1.406-1.386h11.39c0.782 0 1.406 0.626 1.406 1.386v11.038h11.038c0.762 0 1.388 0.626 1.388 1.406v11.39c0 0.782-0.626 1.406-1.388 1.406h-11.038v11.038c0 0.762-0.626 1.388-1.406 1.388h-11.39c-0.782 0-1.406-0.626-1.406-1.388v-11.038zM145.716 256.678c-17.876 0-32.352-13.792-32.352-30.71h9.102c2.404 10.64 11.894 18.578 23.248 18.578s20.832-7.938 23.23-18.578h9.12c0 0.040-0.006 0.080-0.006 0.12-0.066 16.862-14.528 30.59-32.342 30.59zM339.51 256.678c-14.064 0-25.99-8.554-30.45-20.434-0.026-0.070-0.056-0.14-0.080-0.21-1.158-3.16-1.82-6.538-1.82-10.066h9.1c2.4 10.64 11.878 18.578 23.25 18.578 11.354 0 20.832-7.938 23.23-18.578h9.12c0.002 16.918-14.494 30.71-32.35 30.71zM97.776 236.166h-5.43c0 0 0-5.274 0-9.26s1.778-3.986 5.236-3.986c3.478 0 10.236 0 10.236 0l0.28 1.23 2.728 12.014-13.050 0.002zM383.426 240.384c0.778 0 1.496 0.462 2.11 1.222 1.16 1.434 1.934 3.988 1.934 6.926 0 4.494-1.798 8.146-4.044 8.146-0.92 0-1.758-0.648-2.436-1.7-0.96-1.49-1.588-3.812-1.588-6.448 0-4.492 1.798-8.146 4.024-8.146zM145.716 244.546c-11.354 0-20.846-7.938-23.248-18.578-0.384-1.698-0.604-3.46-0.604-5.274 0-13.168 10.686-23.834 23.854-23.834 13.166 0 23.834 10.666 23.834 23.834 0 1.816-0.22 3.576-0.604 5.274-2.4 10.64-11.878 18.578-23.232 18.578zM159.996 220.692c0-7.892-6.388-14.28-14.28-14.28s-14.3 6.388-14.3 14.28c0 7.912 6.408 14.3 14.3 14.3 7.892 0.002 14.28-6.388 14.28-14.3zM145.716 234.994c-7.892 0-14.3-6.388-14.3-14.3 0-7.892 6.408-14.28 14.3-14.28s14.28 6.388 14.28 14.28c0 7.91-6.388 14.3-14.28 14.3zM339.51 244.546c-11.372 0-20.85-7.938-23.25-18.578-0.384-1.698-0.604-3.46-0.604-5.274 0-13.168 10.666-23.834 23.854-23.834 13.166 0 23.834 10.666 23.834 23.834 0 1.816-0.22 3.576-0.604 5.274-2.398 10.64-11.876 18.578-23.23 18.578zM353.79 220.692c0-7.892-6.388-14.28-14.28-14.28s-14.3 6.388-14.3 14.28c0 7.912 6.408 14.3 14.3 14.3 7.892 0.002 14.28-6.388 14.28-14.3zM339.51 234.994c-7.892 0-14.3-6.388-14.3-14.3 0-7.892 6.408-14.28 14.3-14.28s14.28 6.388 14.28 14.28c0 7.91-6.388 14.3-14.28 14.3zM320.698 277.834h-222.922c0-1.556 0-3.108 0-4.65 0-2.978 0-5.916 0-8.792h222.922v13.442z" />
<glyph unicode="&#xe901;" d="M775.903 783.944c-41.772 0-75.63 33.861-75.63 75.636v97.592l89.402-86.573-89.402 89.402h-476.965c-41.767 0-75.63-33.864-75.63-75.633v-872.734c0-41.769 33.864-75.633 75.63-75.633h577.381c41.769 0 75.636 33.864 75.636 75.633v772.311h-100.421zM377.878 776.99c0 14.8 12.002 26.8 26.8 26.8h42.555v42.55c0 14.803 12.002 26.805 26.805 26.805h17.924c14.811 0 26.81-12.002 26.81-26.805v-42.553h42.55c14.806 0 26.805-12 26.805-26.8v-17.932c0-14.8-12-26.8-26.805-26.8h-42.55v-42.558c0-14.806-12-26.808-26.81-26.808h-17.924c-14.8 0-26.805 12.002-26.805 26.808v42.558h-42.555c-14.798 0-26.8 12-26.8 26.8v17.934zM248.236 587.823c0 13.51 10.945 24.463 24.457 24.463h80.725c13.51 0 24.463-10.95 24.463-24.463v-80.718c0-13.51-10.95-24.463-24.463-24.463h-80.725c-13.51 0-24.457 10.95-24.457 24.463v80.718zM787.239 140.431h-521.157c-6.813 0-12.338 5.525-12.338 12.34s5.525 12.338 12.338 12.338h521.157c6.815 0 12.338-5.522 12.338-12.338s-5.522-12.34-12.338-12.34zM787.239 252.539h-521.157c-6.813 0-12.338 5.525-12.338 12.34 0 6.813 5.525 12.338 12.338 12.338h521.157c6.815 0 12.338-5.525 12.338-12.338 0-6.815-5.522-12.34-12.338-12.34zM787.239 370.056h-521.157c-6.813 0-12.338 5.522-12.338 12.338 0 6.818 5.525 12.34 12.338 12.34h521.157c6.815 0 12.338-5.522 12.338-12.34 0-6.813-5.522-12.338-12.338-12.338zM787.239 487.577h-368.877c-6.813 0-12.34 5.525-12.34 12.338 0 6.815 5.527 12.343 12.34 12.343h368.877c6.815 0 12.338-5.527 12.338-12.343 0-6.813-5.522-12.338-12.338-12.338z" />
<glyph unicode="&#xe902;" d="M700.272 859.579c0-41.775 33.858-75.636 75.63-75.636h100.418l-176.051 176.054 0.003-100.418z" />
<glyph unicode="&#xe903;" d="M272.69 482.643h80.725c13.51 0 24.463 10.95 24.463 24.463v80.718c0 13.51-10.95 24.463-24.463 24.463h-80.725c-13.51 0-24.457-10.95-24.457-24.463v-80.718c0.003-13.513 10.947-24.463 24.457-24.463z" />
<glyph unicode="&#xe904;" d="M787.239 512.257h-368.877c-6.813 0-12.34-5.527-12.34-12.343 0-6.813 5.527-12.338 12.34-12.338h368.877c6.815 0 12.338 5.525 12.338 12.338 0 6.815-5.522 12.343-12.338 12.343z" />
<glyph unicode="&#xe905;" d="M787.239 394.737h-521.157c-6.813 0-12.338-5.522-12.338-12.34 0-6.815 5.525-12.338 12.338-12.338h521.157c6.815 0 12.338 5.522 12.338 12.338 0 6.818-5.522 12.34-12.338 12.34z" />
<glyph unicode="&#xe906;" d="M787.239 277.219h-521.157c-6.813 0-12.338-5.525-12.338-12.338 0-6.815 5.525-12.34 12.338-12.34h521.157c6.815 0 12.338 5.525 12.338 12.34 0 6.81-5.522 12.338-12.338 12.338z" />
<glyph unicode="&#xe907;" d="M787.239 165.111h-521.157c-6.813 0-12.338-5.522-12.338-12.338s5.525-12.34 12.338-12.34h521.157c6.815 0 12.338 5.525 12.338 12.34s-5.522 12.338-12.338 12.338z" />
<glyph unicode="&#xe908;" d="M404.678 732.259h42.555v-42.558c0-14.806 12.002-26.808 26.805-26.808h17.924c14.811 0 26.81 12.002 26.81 26.808v42.558h42.55c14.806 0 26.805 12 26.805 26.8v17.932c0 14.8-12 26.8-26.805 26.8h-42.55v42.55c0 14.803-12 26.805-26.81 26.805h-17.924c-14.8 0-26.805-12.002-26.805-26.805v-42.553h-42.555c-14.798 0-26.8-12-26.8-26.8v-17.932c0-14.8 12.002-26.797 26.8-26.797z" />
<glyph unicode="&#xe909;" d="M809.88 884.579c-1.708-14.396-13.937-25.571-28.798-25.571h-69.108c-1.511-18.702-17.138-33.418-36.233-33.418h-313.616c-19.093 0-34.722 14.716-36.231 33.418h-82.98c-14.861 0-27.090 11.174-28.798 25.571-24.857-10.896-42.037-34.221-42.037-61.242v-819.527c0-37.451 32.998-67.809 73.7-67.809h449.762v82.678c0 40.704 30.356 73.7 67.809 73.7h88.568v730.959c-0.003 27.021-17.183 50.346-42.039 61.242zM343.704 196.035c0-10.188-8.259-18.447-18.447-18.447h-60.872c-10.188 0-18.445 8.259-18.445 18.447v60.87c0 10.188 8.257 18.447 18.445 18.447h60.872c10.188 0 18.447-8.259 18.447-18.447v-60.87zM343.704 342.681c0-10.188-8.259-18.445-18.447-18.445h-60.872c-10.188 0-18.445 8.257-18.445 18.445v60.872c0 10.185 8.257 18.445 18.445 18.445h60.872c10.188 0 18.447-8.259 18.447-18.445v-60.872zM343.704 489.325c0-10.188-8.259-18.445-18.447-18.445h-60.872c-10.188 0-18.445 8.257-18.445 18.445v60.872c0 10.185 8.257 18.445 18.445 18.445h60.872c10.188 0 18.447-8.259 18.447-18.445v-60.872zM343.704 635.971c0-10.185-8.259-18.445-18.447-18.445h-60.872c-10.188 0-18.445 8.259-18.445 18.445v60.872c0 10.185 8.257 18.445 18.445 18.445h60.872c10.188 0 18.447-8.259 18.447-18.445v-60.872zM577.077 59.337c0-9.165-7.425-16.592-16.595-16.592h-26.339v-26.342c0-9.165-7.428-16.598-16.592-16.598h-11.093c-9.165 0-16.595 7.433-16.595 16.598v26.342h-26.345c-9.159 0-16.59 7.428-16.59 16.592v11.096c0 9.162 7.43 16.59 16.59 16.59h26.345v26.345c0 9.162 7.43 16.592 16.595 16.592h11.093c9.165 0 16.592-7.43 16.592-16.592v-26.345h26.339c9.17 0 16.595-7.428 16.595-16.59v-11.096zM780.82 182.032h-390.456c-6.137 0-11.109 4.975-11.109 11.106 0 6.139 4.975 11.111 11.109 11.111h390.456c6.137 0 11.109-4.975 11.109-11.111 0-6.132-4.972-11.106-11.109-11.106zM780.82 328.678h-390.456c-6.137 0-11.109 4.975-11.109 11.106 0 6.139 4.975 11.111 11.109 11.111h390.456c6.137 0 11.109-4.975 11.109-11.111 0-6.134-4.972-11.106-11.109-11.106zM780.82 475.324h-390.456c-6.137 0-11.109 4.975-11.109 11.109s4.975 11.109 11.109 11.109h390.456c6.137 0 11.109-4.975 11.109-11.109s-4.972-11.109-11.109-11.109zM780.82 621.968h-390.456c-6.137 0-11.109 4.975-11.109 11.109s4.975 11.111 11.109 11.111h390.456c6.137 0 11.109-4.975 11.109-11.111s-4.972-11.109-11.109-11.109z" />
<glyph unicode="&#xe90a;" d="M695.542 18.681v-82.678l156.378 156.378h-88.568c-37.453-0.003-67.809-32.998-67.809-73.7z" />
<glyph unicode="&#xe90b;" d="M709.353 856.385h71.732c14.861 0 27.087 11.174 28.798 25.571 0.134 1.136 0.223 2.28 0.223 3.448 0 16.028-12.99 29.023-29.021 29.023h-71.582c-0.003 0-0.073-57.063-0.15-58.041z" />
<glyph unicode="&#xe90c;" d="M242.915 856.385h85.603c-0.079 0.979-0.15 58.041-0.15 58.041h-85.454c-16.028 0-29.021-12.993-29.021-29.023 0-1.168 0.089-2.317 0.223-3.448 1.711-14.396 13.937-25.571 28.798-25.571z" />
<glyph unicode="&#xe90d;" d="M325.257 715.288h-60.872c-10.188 0-18.445-8.259-18.445-18.445v-60.872c0-10.185 8.257-18.445 18.445-18.445h60.872c10.188 0 18.447 8.259 18.447 18.445v60.872c0 10.185-8.259 18.445-18.447 18.445z" />
<glyph unicode="&#xe90e;" d="M780.82 644.191h-390.456c-6.137 0-11.109-4.975-11.109-11.111s4.975-11.109 11.109-11.109h390.456c6.137 0 11.109 4.975 11.109 11.109s-4.972 11.111-11.109 11.111z" />
<glyph unicode="&#xe90f;" d="M325.257 568.644h-60.872c-10.188 0-18.445-8.259-18.445-18.445v-60.872c0-10.188 8.257-18.445 18.445-18.445h60.872c10.188 0 18.447 8.257 18.447 18.445v60.872c0 10.183-8.259 18.445-18.447 18.445z" />
<glyph unicode="&#xe910;" d="M780.82 497.542h-390.456c-6.137 0-11.109-4.975-11.109-11.109s4.975-11.109 11.109-11.109h390.456c6.137 0 11.109 4.975 11.109 11.109s-4.972 11.109-11.109 11.109z" />
<glyph unicode="&#xe911;" d="M325.257 421.998h-60.872c-10.188 0-18.445-8.259-18.445-18.445v-60.872c0-10.188 8.257-18.445 18.445-18.445h60.872c10.188 0 18.447 8.257 18.447 18.445v60.872c0 10.185-8.259 18.445-18.447 18.445z" />
<glyph unicode="&#xe912;" d="M780.82 350.898h-390.456c-6.137 0-11.109-4.975-11.109-11.111 0-6.134 4.975-11.106 11.109-11.106h390.456c6.137 0 11.109 4.975 11.109 11.106 0 6.137-4.972 11.111-11.109 11.111z" />
<glyph unicode="&#xe913;" d="M325.257 275.354h-60.872c-10.188 0-18.445-8.259-18.445-18.447v-60.87c0-10.188 8.257-18.447 18.445-18.447h60.872c10.188 0 18.447 8.259 18.447 18.447v60.87c0 10.185-8.259 18.447-18.447 18.447z" />
<glyph unicode="&#xe914;" d="M780.82 204.252h-390.456c-6.137 0-11.109-4.975-11.109-11.111 0-6.134 4.975-11.106 11.109-11.106h390.456c6.137 0 11.109 4.975 11.109 11.106 0 6.139-4.972 11.111-11.109 11.111z" />
<glyph unicode="&#xe915;" d="M325.745 859.344c0-1 0.071-1.981 0.15-2.96 1.509-18.702 17.138-33.418 36.231-33.418h313.618c19.093 0 34.719 14.716 36.233 33.418 0.076 0.979 0.15 1.96 0.15 2.96v64.275c0 20.092-16.288 36.38-36.38 36.38h-313.621c-20.092 0-36.38-16.288-36.38-36.38v-64.275z" />
<glyph unicode="&#xe916;" d="M560.479 87.023h-26.339v26.345c0 9.162-7.428 16.592-16.592 16.592h-11.093c-9.165 0-16.595-7.43-16.595-16.592v-26.345h-26.345c-9.159 0-16.59-7.428-16.59-16.59v-11.096c0-9.165 7.43-16.592 16.59-16.592h26.345v-26.342c0-9.165 7.43-16.598 16.595-16.598h11.093c9.165 0 16.592 7.433 16.592 16.598v26.342h26.339c9.17 0 16.595 7.428 16.595 16.592v11.096c0.003 9.162-7.425 16.59-16.595 16.59z" />
<glyph unicode="&#xe917;" d="M667.748 388.076c-21.802-57.419-16.215-121.76-10.812-183.985 6.132-70.642 11.927-137.366-25.391-179.462-29.48-33.258-84.827-50.809-169.203-53.651-83.627-2.813-141.711 15.677-172.606 54.977-55.776 70.945-19.209 202.077 4.992 288.849 7.84 28.112 14.168 50.813 16.986 68.555-3.8-0.186-7.637-0.305-11.53-0.307-8.055 0.007-15.89 0.459-23.539 1.227-2.999-15.885-9.047-37.588-15.34-60.153-26.080-93.519-65.492-234.846 1.155-319.618 35.766-45.499 97.545-68.508 183.799-68.508 5.641 0 11.401 0.099 17.251 0.295 94.407 3.183 157.866 24.545 194.001 65.316 47.207 53.257 40.49 130.644 33.991 205.482-8.675 99.917-16.944 195.248 83.385 252.132-7.223 8.98-13.171 19.018-17.583 29.855-43.802-24.964-73.381-58.398-89.556-101.002z" />
<glyph unicode="&#xe918;" d="M311.712 383.357c100.841 4.957 167.959 72.58 175.152 106.024-43.368-33.902-99.297-52.548-166.72-55.55-2.159-0.466-4.387-0.729-6.672-0.746-1.143-0.010-2.288-0.010-3.425-0.010-81.707 0-147.751 21.574-196.349 64.151-0.171 0.151-0.33 0.31-0.501 0.461-0.253-0.833-0.384-1.737-0.384-2.719 0-29.602 63.888-100.65 163.829-110.689 7.646-0.768 15.481-1.219 23.539-1.227 3.894 0 7.731 0.119 11.53 0.305z" />
<glyph unicode="&#xe919;" d="M78.584 687.903c-0.223 4.796-0.377 9.614-0.377 14.485 0 77.25 29.857 158.305 86.111 189.272-8.702 5.897-14.777 15.724-15.93 27.121-22.149-12.683-41.804-31.87-57.811-56.911-27.527-43.065-42.689-99.706-42.689-159.482 0-7.391 0.265-14.708 0.731-21.955 4.848 4.271 10.841 7.215 17.566 8.155 4.271 0.592 8.445 0.295 12.398-0.684z" />
<glyph unicode="&#xe91a;" d="M544.277 688.892c6.724-0.937 12.718-3.884 17.566-8.157 0.466 7.25 0.731 14.567 0.731 21.958 0 59.776-15.159 116.417-42.686 159.482-16.007 25.044-35.662 44.23-57.811 56.913-1.153-11.399-7.225-21.224-15.927-27.123 56.251-30.97 86.109-112.025 86.109-189.272 0-4.868-0.154-9.689-0.377-14.485 3.956 0.982 8.13 1.276 12.395 0.684z" />
<glyph unicode="&#xe91b;" d="M310.049 433.073c1.135 0 2.28 0 3.425 0.010 2.285 0.015 4.514 0.28 6.672 0.746 67.422 3.002 123.352 21.648 166.72 55.55 3.368 2.635 6.685 5.334 9.902 8.152 42.897 37.583 69.599 89.621 77.22 150.487 1.609 12.847-3.363 24.984-12.143 32.717-4.848 4.271-10.841 7.218-17.566 8.157-4.266 0.592-8.44 0.297-12.393-0.682-13.568-3.361-24.421-15.216-26.352-30.655-12.155-97.051-88.059-152.225-208.055-151.33-0.082 0.002-0.161 0.002-0.245 0.002-0.206 0-0.409-0.030-0.612-0.035-110.493 4.077-180.089 58.502-191.679 151.052-1.933 15.439-12.785 27.292-26.352 30.655-3.956 0.979-8.13 1.274-12.395 0.682-6.724-0.937-12.72-3.884-17.566-8.155-8.779-7.736-13.751-19.873-12.143-32.72 7.592-60.624 34.123-112.478 76.72-150.026 0.171-0.151 0.33-0.31 0.501-0.461 48.588-42.575 114.632-64.148 196.341-64.148z" />
<glyph unicode="&#xe91c;" d="M161.839 891.66c5.455-3.698 11.929-5.869 18.897-5.869 19.345 0 52.546 16.542 52.546 36.948s-33.201 36.951-52.546 36.951c-19.348 0-35.032-16.545-35.032-36.951 0-1.338 0.074-2.657 0.206-3.958 1.153-11.397 7.225-21.224 15.93-27.121z" />
<glyph unicode="&#xe91d;" d="M464.556 919.091c0.131 1.301 0.206 2.62 0.206 3.958 0 20.406-15.684 36.951-35.032 36.951s-52.548-16.545-52.548-36.951c0-20.409 33.201-36.951 52.548-36.951 6.967 0 13.441 2.171 18.899 5.869 8.702 5.899 14.775 15.724 15.927 27.123z" />
<glyph unicode="&#xe91e;" d="M868.154 653.808c-66.087 0-119.656-53.572-119.656-119.656 0-15.952 3.148-31.158 8.811-45.076 4.412-10.836 10.36-20.877 17.583-29.855 21.933-27.264 55.55-44.726 93.264-44.726 66.087 0 119.656 53.572 119.656 119.656s-53.572 119.656-119.659 119.656zM868.154 436.089c-54.16 0-98.063 43.906-98.063 98.063 0 54.16 43.906 98.063 98.063 98.063s98.063-43.903 98.063-98.063c0-54.157-43.903-98.063-98.063-98.063z" />
<glyph unicode="&#xe91f;" d="M868.154 632.217c-54.16 0-98.063-43.903-98.063-98.063s43.906-98.063 98.063-98.063 98.063 43.906 98.063 98.063-43.903 98.063-98.063 98.063zM868.154 487.701c-25.656 0-46.451 20.798-46.451 46.451s20.798 46.451 46.451 46.451c25.656 0 46.451-20.8 46.451-46.451 0-25.653-20.795-46.451-46.451-46.451z" />
<glyph unicode="&#xe920;" d="M916.638 534.152c0-26.777-21.707-48.484-48.484-48.484s-48.484 21.707-48.484 48.484c0 26.777 21.707 48.484 48.484 48.484s48.484-21.707 48.484-48.484z" />
<glyph unicode="&#xe921;" d="M863.338 852.364h-224.577v-118.733c0-12.256-9.934-22.193-22.191-22.193h-214.078c-12.256 0-22.191 9.934-22.191 22.193v118.733h-219.64c-42.183 0-76.377-34.193-76.377-76.379v-762.165c0-42.183 34.193-76.379 76.377-76.379h286.481v178.419c0 8.054 6.529 14.583 14.583 14.583h105.001c8.057 0 14.583-6.529 14.583-14.583v-178.419h282.027c42.183 0 76.379 34.193 76.379 76.379v762.165c0.002 42.186-34.198 76.379-76.379 76.379zM375.245 191.533c0-8.054-6.529-14.583-14.583-14.583h-105.001c-8.057 0-14.583 6.529-14.583 14.583v105.001c0 8.054 6.529 14.583 14.583 14.583h105.001c8.057 0 14.583-6.529 14.583-14.583v-105.001zM375.245 370.581c0-8.054-6.529-14.583-14.583-14.583h-105.001c-8.057 0-14.583 6.529-14.583 14.583v105.001c0 8.054 6.529 14.583 14.583 14.583h105.001c8.057 0 14.583-6.529 14.583-14.583v-105.001zM375.245 551.255c0-8.054-6.529-14.583-14.583-14.583h-105.001c-8.057 0-14.583 6.529-14.583 14.583v105.001c0 8.054 6.529 14.583 14.583 14.583h105.001c8.057 0 14.583-6.529 14.583-14.583v-105.001zM581.311 191.533c0-8.054-6.529-14.583-14.583-14.583h-105.001c-8.057 0-14.583 6.529-14.583 14.583v105.001c0 8.054 6.529 14.583 14.583 14.583h105.001c8.057 0 14.583-6.529 14.583-14.583v-105.001zM581.311 370.581c0-8.054-6.529-14.583-14.583-14.583h-105.001c-8.057 0-14.583 6.529-14.583 14.583v105.001c0 8.054 6.529 14.583 14.583 14.583h105.001c8.057 0 14.583-6.529 14.583-14.583v-105.001zM581.311 551.255c0-8.054-6.529-14.583-14.583-14.583h-105.001c-8.057 0-14.583 6.529-14.583 14.583v105.001c0 8.054 6.529 14.583 14.583 14.583h105.001c8.057 0 14.583-6.529 14.583-14.583v-105.001zM787.379 191.533c0-8.054-6.529-14.583-14.583-14.583h-105.001c-8.057 0-14.583 6.529-14.583 14.583v105.001c0 8.054 6.529 14.583 14.583 14.583h105.001c8.057 0 14.583-6.529 14.583-14.583v-105.001zM787.379 370.581c0-8.054-6.529-14.583-14.583-14.583h-105.001c-8.057 0-14.583 6.529-14.583 14.583v105.001c0 8.054 6.529 14.583 14.583 14.583h105.001c8.057 0 14.583-6.529 14.583-14.583v-105.001zM787.379 551.255c0-8.054-6.529-14.583-14.583-14.583h-105.001c-8.057 0-14.583 6.529-14.583 14.583v105.001c0 8.054 6.529 14.583 14.583 14.583h105.001c8.057 0 14.583-6.529 14.583-14.583v-105.001z" />
<glyph unicode="&#xe922;" d="M360.662 670.839h-105.001c-8.057 0-14.583-6.529-14.583-14.583v-105.001c0-8.054 6.529-14.583 14.583-14.583h105.001c8.057 0 14.583 6.529 14.583 14.583v105.001c0 8.054-6.529 14.583-14.583 14.583z" />
<glyph unicode="&#xe923;" d="M566.725 670.839h-105.001c-8.057 0-14.583-6.529-14.583-14.583v-105.001c0-8.054 6.529-14.583 14.583-14.583h105.001c8.057 0 14.583 6.529 14.583 14.583v105.001c0.002 8.054-6.524 14.583-14.583 14.583z" />
<glyph unicode="&#xe924;" d="M772.793 670.839h-105.001c-8.057 0-14.583-6.529-14.583-14.583v-105.001c0-8.054 6.529-14.583 14.583-14.583h105.001c8.057 0 14.583 6.529 14.583 14.583v105.001c0.002 8.054-6.524 14.583-14.583 14.583z" />
<glyph unicode="&#xe925;" d="M360.662 490.165h-105.001c-8.057 0-14.583-6.529-14.583-14.583v-105.001c0-8.054 6.529-14.583 14.583-14.583h105.001c8.057 0 14.583 6.529 14.583 14.583v105.001c0 8.054-6.529 14.583-14.583 14.583z" />
<glyph unicode="&#xe926;" d="M566.725 490.165h-105.001c-8.057 0-14.583-6.529-14.583-14.583v-105.001c0-8.054 6.529-14.583 14.583-14.583h105.001c8.057 0 14.583 6.529 14.583 14.583v105.001c0.002 8.054-6.524 14.583-14.583 14.583z" />
<glyph unicode="&#xe927;" d="M772.793 490.165h-105.001c-8.057 0-14.583-6.529-14.583-14.583v-105.001c0-8.054 6.529-14.583 14.583-14.583h105.001c8.057 0 14.583 6.529 14.583 14.583v105.001c0.002 8.054-6.524 14.583-14.583 14.583z" />
<glyph unicode="&#xe928;" d="M360.662 311.117h-105.001c-8.057 0-14.583-6.529-14.583-14.583v-105.001c0-8.054 6.529-14.583 14.583-14.583h105.001c8.057 0 14.583 6.529 14.583 14.583v105.001c0 8.054-6.529 14.583-14.583 14.583z" />
<glyph unicode="&#xe929;" d="M566.725 311.117h-105.001c-8.057 0-14.583-6.529-14.583-14.583v-105.001c0-8.054 6.529-14.583 14.583-14.583h105.001c8.057 0 14.583 6.529 14.583 14.583v105.001c0.002 8.054-6.524 14.583-14.583 14.583z" />
<glyph unicode="&#xe92a;" d="M772.793 311.117h-105.001c-8.057 0-14.583-6.529-14.583-14.583v-105.001c0-8.054 6.529-14.583 14.583-14.583h105.001c8.057 0 14.583 6.529 14.583 14.583v105.001c0.002 8.054-6.524 14.583-14.583 14.583z" />
<glyph unicode="&#xe92b;" d="M566.725 130.446h-105.001c-8.057 0-14.583-6.529-14.583-14.583v-179.862h134.167v179.862c0.002 8.054-6.524 14.583-14.583 14.583z" />
<glyph unicode="&#xe92c;" d="M402.495 711.44h214.078c12.256 0 22.191 9.934 22.191 22.193v204.173c0 12.256-9.934 22.193-22.191 22.193h-214.078c-12.256 0-22.191-9.937-22.191-22.193v-204.175c0-12.256 9.934-22.191 22.191-22.191zM450.598 913.945h32.885c4.2 0 7.6-3.403 7.6-7.6v-51.58h37.090v51.58c0 4.197 3.403 7.6 7.598 7.6h32.695c4.195 0 7.6-3.403 7.6-7.6v-141.254c0-4.197-3.405-7.6-7.6-7.6h-32.695c-4.195 0-7.598 3.403-7.598 7.6v49.25h-37.090v-49.25c0-4.197-3.4-7.6-7.6-7.6h-32.885c-4.195 0-7.6 3.403-7.6 7.6v141.254c0 4.197 3.403 7.6 7.6 7.6z" />
<glyph unicode="&#xe92d;" d="M442.998 765.093c0-4.197 3.405-7.6 7.6-7.6h32.885c4.2 0 7.6 3.403 7.6 7.6v49.25h37.090v-49.25c0-4.197 3.403-7.6 7.598-7.6h32.695c4.195 0 7.6 3.403 7.6 7.6v141.252c0 4.197-3.405 7.6-7.6 7.6h-32.695c-4.195 0-7.598-3.403-7.598-7.6v-51.58h-37.090v51.58c0 4.197-3.4 7.6-7.6 7.6h-32.885c-4.195 0-7.6-3.403-7.6-7.6v-141.252z" />
<glyph unicode="&#xe92e;" d="M928.616 925.096c0 19.198-15.708 34.904-34.904 34.904h-763.424c-19.196 0-34.904-15.706-34.904-34.904v-954.194c0-19.196 15.706-34.904 34.904-34.904h763.424c19.196 0 34.904 15.706 34.904 34.904v954.194z" />
<glyph unicode="&#xe92f;" d="M830.782 794.758h-353.686c-9.638 0-17.452 7.814-17.452 17.452 0 9.64 7.814 17.452 17.452 17.452h353.686c9.638 0 17.452-7.812 17.452-17.452 0-9.638-7.814-17.452-17.452-17.452z" />
<glyph unicode="&#xe930;" d="M726.072 715.644h-248.976c-9.638 0-17.452 7.814-17.452 17.452 0 9.64 7.814 17.452 17.452 17.452h248.976c9.638 0 17.452-7.812 17.452-17.452 0-9.638-7.814-17.452-17.452-17.452z" />
<glyph unicode="&#xe931;" d="M412.294 772.662c0-65.537-53.129-118.666-118.666-118.666s-118.666 53.129-118.666 118.666c0 65.537 53.129 118.666 118.666 118.666s118.666-53.129 118.666-118.666z" />
<glyph unicode="&#xe932;" d="M271.178 713.904c-4.628 0-9.068 1.838-12.34 5.112l-37.712 37.716c-6.816 6.816-6.816 17.866 0 24.678 6.816 6.814 17.866 6.816 24.678-0.002l25.372-25.372 65.6 65.602c6.816 6.814 17.866 6.814 24.678 0 6.816-6.818 6.816-17.866 0-24.678l-77.938-77.944c-3.27-3.274-7.71-5.112-12.338-5.112z" />
<glyph unicode="&#xe933;" d="M830.782 470.106h-353.686c-9.638 0-17.452 7.812-17.452 17.452s7.814 17.452 17.452 17.452h353.686c9.638 0 17.452-7.812 17.452-17.452 0-9.642-7.814-17.452-17.452-17.452z" />
<glyph unicode="&#xe934;" d="M726.072 390.992h-248.976c-9.638 0-17.452 7.812-17.452 17.452s7.814 17.452 17.452 17.452h248.976c9.638 0 17.452-7.812 17.452-17.452 0-9.642-7.814-17.452-17.452-17.452z" />
<glyph unicode="&#xe935;" d="M412.294 447.994c0-65.537-53.129-118.666-118.666-118.666s-118.666 53.129-118.666 118.666c0 65.537 53.129 118.666 118.666 118.666s118.666-53.129 118.666-118.666z" />
<glyph unicode="&#xe936;" d="M830.782 145.452h-353.686c-9.638 0-17.452 7.812-17.452 17.452 0 9.638 7.814 17.452 17.452 17.452h353.686c9.638 0 17.452-7.814 17.452-17.452 0-9.64-7.814-17.452-17.452-17.452z" />
<glyph unicode="&#xe937;" d="M726.072 66.338h-248.976c-9.638 0-17.452 7.812-17.452 17.452 0 9.638 7.814 17.452 17.452 17.452h248.976c9.638 0 17.452-7.814 17.452-17.452 0-9.64-7.814-17.452-17.452-17.452z" />
<glyph unicode="&#xe938;" d="M412.294 123.346c0-65.537-53.129-118.666-118.666-118.666s-118.666 53.129-118.666 118.666c0 65.537 53.129 118.666 118.666 118.666s118.666-53.129 118.666-118.666z" />
<glyph unicode="&#xe939;" d="M914.882 909.37c0 18.564-15.188 33.752-33.752 33.752h-738.26c-18.564 0-33.752-15.188-33.752-33.752v-922.742c0-18.564 15.188-33.752 33.752-33.752h738.26c18.564 0 33.752 15.188 33.752 33.752v922.742z" />
<glyph unicode="&#xe93a;" d="M820.274 783.33h-342.028c-9.32 0-16.876 7.556-16.876 16.876 0 9.322 7.556 16.876 16.876 16.876h342.028c9.32 0 16.876-7.554 16.876-16.876 0-9.32-7.556-16.876-16.876-16.876z" />
<glyph unicode="&#xe93b;" d="M719.016 706.822h-240.77c-9.32 0-16.876 7.556-16.876 16.876 0 9.322 7.556 16.876 16.876 16.876h240.77c9.32 0 16.876-7.554 16.876-16.876 0-9.32-7.556-16.876-16.876-16.876z" />
<glyph unicode="&#xe93c;" d="M415.58 761.962c0-63.377-51.377-114.754-114.754-114.754s-114.754 51.377-114.754 114.754c0 63.377 51.377 114.754 114.754 114.754s114.754-51.377 114.754-114.754z" />
<glyph unicode="&#xe93d;" d="M279.116 705.14c-4.476 0-8.768 1.778-11.932 4.944l-36.468 36.47c-6.59 6.59-6.59 17.276 0 23.866 6.59 6.588 17.276 6.59 23.866-0.002l24.536-24.536 63.438 63.44c6.59 6.588 17.276 6.588 23.866 0 6.59-6.594 6.59-17.276 0-23.866l-75.37-75.374c-3.166-3.164-7.46-4.942-11.936-4.942z" />
<glyph unicode="&#xe93e;" d="M820.274 469.376h-342.028c-9.32 0-16.876 7.554-16.876 16.876s7.556 16.876 16.876 16.876h342.028c9.32 0 16.876-7.554 16.876-16.876s-7.556-16.876-16.876-16.876z" />
<glyph unicode="&#xe93f;" d="M719.016 392.87h-240.77c-9.32 0-16.876 7.554-16.876 16.876s7.556 16.876 16.876 16.876h240.77c9.32 0 16.876-7.554 16.876-16.876s-7.556-16.876-16.876-16.876z" />
<glyph unicode="&#xe940;" d="M415.58 447.994c0-63.377-51.377-114.754-114.754-114.754s-114.754 51.377-114.754 114.754c0 63.377 51.377 114.754 114.754 114.754s114.754-51.377 114.754-114.754z" />
<glyph unicode="&#xe941;" d="M820.274 155.424h-342.028c-9.32 0-16.876 7.554-16.876 16.876 0 9.32 7.556 16.876 16.876 16.876h342.028c9.32 0 16.876-7.556 16.876-16.876 0-9.322-7.556-16.876-16.876-16.876z" />
<glyph unicode="&#xe942;" d="M719.016 78.918h-240.77c-9.32 0-16.876 7.554-16.876 16.876 0 9.32 7.556 16.876 16.876 16.876h240.77c9.32 0 16.876-7.556 16.876-16.876 0-9.322-7.556-16.876-16.876-16.876z" />
<glyph unicode="&#xe943;" d="M415.58 134.048c0-63.377-51.377-114.754-114.754-114.754s-114.754 51.377-114.754 114.754c0 63.377 51.377 114.754 114.754 114.754s114.754-51.377 114.754-114.754z" />
<glyph unicode="&#xe944;" d="M881.13-64h-738.26c-27.918 0-50.63 22.714-50.63 50.63v922.74c0 27.916 22.712 50.63 50.63 50.63h738.26c27.918 0 50.63-22.714 50.63-50.63v-922.742c0-27.914-22.714-50.628-50.63-50.628zM142.87 926.248c-9.304 0-16.876-7.57-16.876-16.876v-922.742c0-9.306 7.572-16.876 16.876-16.876h738.26c9.304 0 16.876 7.57 16.876 16.876v922.74c0 9.306-7.572 16.876-16.876 16.876h-738.26z" />
<glyph unicode="&#xe945;" d="M643.258 67.258c-126.674 0-244.692 62.742-315.692 167.832-14.392 21.302-8.79 50.234 12.508 64.626 21.302 14.392 50.234 8.788 64.624-12.512 53.67-79.434 142.848-126.858 238.56-126.858 158.61 0 287.652 129.042 287.652 287.652 0 158.614-129.042 287.652-287.652 287.652-95.998 0-185.322-47.638-238.942-127.428-14.336-21.336-43.256-27.012-64.592-12.67-21.336 14.34-27.008 43.256-12.672 64.592 70.944 105.57 189.15 168.596 316.206 168.596 209.94 0.002 380.742-170.796 380.742-380.74 0-209.94-170.802-380.742-380.742-380.742z" />
<glyph unicode="&#xe946;" d="M736.856 422.12c0.184 0.266 0.328 0.556 0.502 0.828 0.648 1.008 1.278 2.026 1.85 3.084 0.106 0.198 0.192 0.412 0.298 0.614 0.59 1.148 1.158 2.308 1.654 3.506 0.056 0.136 0.096 0.282 0.156 0.418 0.512 1.262 0.98 2.544 1.38 3.86 0.046 0.152 0.074 0.314 0.118 0.466 0.382 1.294 0.724 2.6 0.99 3.938 0.074 0.384 0.112 0.776 0.18 1.16 0.192 1.108 0.388 2.216 0.496 3.352 0.158 1.54 0.236 3.088 0.236 4.646 0 1.56-0.078 3.112-0.236 4.648-0.108 1.12-0.304 2.216-0.49 3.31-0.072 0.4-0.106 0.806-0.186 1.204-0.264 1.318-0.602 2.61-0.978 3.884-0.050 0.17-0.078 0.348-0.13 0.518-0.398 1.294-0.86 2.556-1.362 3.804-0.066 0.156-0.112 0.32-0.176 0.474-0.49 1.18-1.048 2.324-1.63 3.454-0.114 0.22-0.204 0.45-0.322 0.668-0.556 1.036-1.176 2.032-1.806 3.020-0.19 0.294-0.348 0.606-0.544 0.896-0.626 0.934-1.316 1.822-2.004 2.706-0.242 0.314-0.46 0.646-0.71 0.956-0.968 1.176-1.99 2.306-3.062 3.38l-139.626 139.63c-18.174 18.178-47.646 18.178-65.824 0-18.178-18.174-18.178-47.646 0-65.824l60.18-60.18h-539.264c-25.706 0.002-46.546-20.838-46.546-46.544s20.84-46.546 46.546-46.546h539.256l-60.18-60.176c-18.178-18.178-18.178-47.646 0-65.824 9.088-9.088 21.002-13.634 32.914-13.634 11.91 0 23.824 4.546 32.91 13.634l139.626 139.626c1.080 1.076 2.098 2.204 3.066 3.382 0.232 0.286 0.434 0.592 0.66 0.884 0.712 0.908 1.416 1.82 2.058 2.778z" />
<glyph unicode="&#xe947;" d="M500.917 57.956v44.325c170.496 0 309.204 138.708 309.204 309.202 0 170.496-138.708 309.204-309.204 309.204v44.325c194.937 0 353.529-158.593 353.529-353.529-0.002-194.935-158.59-353.527-353.529-353.527z" />
<glyph unicode="&#xe948;" d="M169.554 193.887h407.302v-44.325h-407.302v44.325z" />
<glyph unicode="&#xe949;" d="M578.514 193.887h-70.047c-60.087 0-108.798-48.711-108.798-108.798v0h287.642c0 60.087-48.711 108.798-108.798 108.798z" />
<glyph unicode="&#xe94a;" d="M531.29 773.274l21.365 65.814-130.783 42.45-21.362-65.816-25.733 8.353-152.852-470.933 182.247-59.154 152.855 470.935z" />
<glyph unicode="&#xe94b;" d="M397.362 272.913l-182.262 59.151 13.684 42.164 182.262-59.151-13.684-42.164z" />
<glyph unicode="&#xe94c;" d="M430.281 374.369l-182.26 59.15 8.21 25.297 182.26-59.15-8.21-25.297z" />
<glyph unicode="&#xe94d;" d="M578.12 917.552l-130.781 42.448-8.209-25.296 19.286-6.261-17.256-53.166 92.205-29.928 17.256 53.166 19.29-6.259z" />
<glyph unicode="&#xe94e;" d="M531.29 773.274l21.365 65.814-19.29 6.261 17.967 55.355 19.288-6.259 6.791 20.915-65.393 21.225-204.626-630.45 91.119-29.576 5.66 17.429 152.855 470.935z" />
<glyph unicode="&#xe94f;" d="M531.307 773.29l-130.79 42.446 5.657 17.43 130.79-42.446-5.657-17.43z" />
<glyph unicode="&#xe950;" d="M169.554 24.65h662.729v-88.65h-662.729v88.65z" />
<glyph unicode="&#xe951;" d="M205.050 91.137h591.736v-66.487h-591.736v66.487z" />
<glyph unicode="&#xe952;" d="M590.661 711.485c0-49.565-40.18-89.745-89.745-89.745s-89.745 40.18-89.745 89.745c0 49.565 40.18 89.745 89.745 89.745s89.745-40.18 89.745-89.745z" />
<glyph unicode="&#xe953;" d="M500.917 801.23v-179.49c49.564 0 89.745 40.181 89.745 89.745 0.002 49.564-40.181 89.745-89.745 89.745z" />
<glyph unicode="&#xe954;" d="M934.957 826.435v-823.652c0-36.882-29.899-66.783-66.783-66.783h-712.348c-36.884 0-66.783 29.901-66.783 66.783v823.652c0 36.882 29.899 66.783 66.783 66.783h712.348c36.884 0 66.783-29.901 66.783-66.783z" />
<glyph unicode="&#xe955;" d="M89.043 2.783v823.652c0 36.884 29.899 66.783 66.783 66.783h356.174v-957.217h-356.174c-36.884 0-66.783 29.899-66.783 66.783z" />
<glyph unicode="&#xe956;" d="M845.913 69.565v-44.522c0-12.295-9.966-22.261-22.261-22.261h-623.304c-12.295 0-22.261 9.966-22.261 22.261v44.522h667.826z" />
<glyph unicode="&#xe957;" d="M512 2.783h-311.652c-12.295 0-22.261 9.966-22.261 22.261v44.522h333.913v-66.783z" />
<glyph unicode="&#xe958;" d="M845.913 793.043v-734.609c0-18.441-14.95-33.391-33.391-33.391h-601.043c-18.441 0-33.391 14.95-33.391 33.391v734.609c0 18.441 14.95 33.391 33.391 33.391h601.043c18.441 0 33.391-14.95 33.391-33.391z" />
<glyph unicode="&#xe959;" d="M178.087 58.435v734.609c0 18.441 14.95 33.391 33.391 33.391h300.522v-801.391h-300.522c-18.441 0-33.391 14.95-33.391 33.391z" />
<glyph unicode="&#xe95a;" d="M667.826 826.435v-11.13c0-18.441-14.95-33.391-33.391-33.391h-244.87c-18.441 0-33.391 14.95-33.391 33.391v11.13h311.652z" />
<glyph unicode="&#xe95b;" d="M512 781.913h-122.435c-18.441 0-33.391 14.95-33.391 33.391v11.13h155.826v-44.522z" />
<glyph unicode="&#xe95c;" d="M645.565 893.217v-66.783c0-12.295-9.966-22.261-22.261-22.261h-222.609c-12.295 0-22.261 9.966-22.261 22.261v66.783h66.783v44.522c0 12.295 9.966 22.261 22.261 22.261h89.043c12.295 0 22.261-9.966 22.261-22.261v-44.522h66.783z" />
<glyph unicode="&#xe95d;" d="M645.565 870.957h-267.13v22.261h267.13v-22.261z" />
<glyph unicode="&#xe95e;" d="M631.866 214.261v-22.261c0-6.146-4.984-11.13-11.13-11.13h-217.471c-6.146 0-11.13 4.984-11.13 11.13v22.261c0 6.146 4.984 11.13 11.13 11.13h217.471c6.148 0 11.13-4.984 11.13-11.13z" />
<glyph unicode="&#xe95f;" d="M734.609 347.826v-22.261c0-6.146-4.984-11.13-11.13-11.13h-422.957c-6.146 0-11.13 4.984-11.13 11.13v22.261c0 6.146 4.984 11.13 11.13 11.13h422.957c6.146 0 11.13-4.984 11.13-11.13z" />
<glyph unicode="&#xe960;" d="M612.174 592.696c0-18.441-14.95-33.391-33.391-33.391h-33.391v-33.391c0-18.441-14.95-33.391-33.391-33.391s-33.391 14.95-33.391 33.391v33.391h-33.391c-18.441 0-33.391 14.95-33.391 33.391s14.95 33.391 33.391 33.391h33.391v33.391c0 18.441 14.95 33.391 33.391 33.391s33.391-14.95 33.391-33.391v-33.391h33.391c18.441 0 33.391-14.95 33.391-33.391z" />
<glyph unicode="&#xe961;" d="M478.609 558.792v0.512h-33.391c-18.441 0-33.391 14.95-33.391 33.391s14.95 33.391 33.391 33.391h33.391v33.391c0 18.441 14.95 33.391 33.391 33.391s33.391-14.95 33.391-33.391v-33.391h0.512l-67.295-67.295z" />
<glyph unicode="&#xe962;" d="M151.291 960h819.47v-1024h-819.47v1024z" />
<glyph unicode="&#xe963;" d="M810.808 66.607c-4.316 0-8.58 1.55-11.94 4.526-5.374 4.76-7.406 12.256-5.17 19.080 1.316 4.016 2.036 8.15 2.294 12.288-11.498-17.324-26.1-30.978-43.236-34.738-11.926-2.618-29.886-1.61-47.698 18.072-29.708 32.822-9.448 69.639 5.342 96.523 17.444 31.702 16.952 36.726 7.528 42.908-7.252 4.76-19.652 1.752-28.772-1.608-57.455-21.176-135.893-108.209-142.475-130.785-2.784-9.544-12.78-15.024-22.32-12.24-9.544 2.784-15.024 12.778-12.24 22.32 10.724 36.764 99.505 130.495 164.59 154.484 24.564 9.056 45.080 8.356 60.971-2.072 17.654-11.584 25.27-28.176 22.024-47.976-2.36-14.39-10.19-28.622-17.762-42.384-20.44-37.148-18.68-45.632-10.192-55.009 7.538-8.328 11.868-7.378 13.288-7.068 10.814 2.374 28.13 24.408 38.388 57.169 2.116 6.766 8.008 11.656 15.048 12.494 7.048 0.842 13.916-2.534 17.564-8.612 1.44-2.398 8.882-15.35 13.124-33.308 5.3 10.156 9.856 21.644 13.93 32.812 1.954 5.352 6.322 9.466 11.784 11.088 5.462 1.62 11.372 0.562 15.926-2.856 8.222-6.168 35.216-28.584 37.312-58.091 0.756-10.632-1.544-26.504-16.786-41.746-7.030-7.030-18.428-7.030-25.456 0s-7.030 18.428 0 25.454c6.116 6.116 6.542 10.768 6.332 13.738-0.326 4.61-2.614 9.476-5.74 14.052-11.184-24.736-25.682-46.364-48.036-56.821-2.434-1.138-5.036-1.694-7.62-1.694z" />
<glyph unicode="&#xe964;" d="M575.014 37.515c-0.29 0-0.58 0.008-0.872 0.020-9.928 0.476-17.596 8.908-17.122 18.838 0.962 20.156 30.502 57.465 36.412 64.739 17.606 21.66 43.688 48.17 67.963 51.445 9.862 1.328 18.914-5.582 20.244-15.432 1.33-9.852-5.58-18.914-15.432-20.244-7.008-0.946-23.458-12.696-43.016-36.258-17.868-21.528-28.882-41.27-30.26-46.688-0.814-9.288-8.612-16.418-17.916-16.418z" />
<glyph unicode="&#xe965;" d="M848.080 793.864h-574.116c-9.94 0-18 8.060-18 18s8.060 18 18 18h574.116c9.94 0 18-8.060 18-18s-8.060-18-18-18z" />
<glyph unicode="&#xe966;" d="M848.080 709.688h-215.060c-9.94 0-18 8.060-18 18s8.060 18 18 18h215.060c9.94 0 18-8.060 18-18 0-9.942-8.060-18-18-18z" />
<glyph unicode="&#xe967;" d="M577.818 709.688h-303.853c-9.94 0-18 8.060-18 18s8.060 18 18 18h303.855c9.94 0 18-8.060 18-18-0.002-9.942-8.060-18-18.002-18z" />
<glyph unicode="&#xe968;" d="M848.080 625.509h-574.116c-9.94 0-18 8.060-18 18s8.060 18 18 18h574.116c9.94 0 18-8.060 18-18s-8.060-18-18-18z" />
<glyph unicode="&#xe969;" d="M848.080 541.332h-131.059c-9.94 0-18 8.060-18 18s8.060 18 18 18h131.059c9.94 0 18-8.060 18-18s-8.060-18-18-18z" />
<glyph unicode="&#xe96a;" d="M661.822 541.332h-387.858c-9.94 0-18 8.060-18 18s8.060 18 18 18h387.856c9.94 0 18-8.060 18-18 0.002-9.94-8.058-18-17.998-18z" />
<glyph unicode="&#xe96b;" d="M848.080 457.155h-320.661c-9.94 0-18 8.060-18 18s8.060 18 18 18h320.661c9.94 0 18-8.060 18-18s-8.060-18-18-18z" />
<glyph unicode="&#xe96c;" d="M474.619 457.155h-200.652c-9.94 0-18 8.060-18 18s8.060 18 18 18h200.652c9.94 0 18-8.060 18-18s-8.058-18-18-18z" />
<glyph unicode="&#xe96d;" d="M702.623 372.98h-428.658c-9.94 0-18 8.060-18 18s8.060 18 18 18h428.656c9.94 0 18-8.060 18-18 0.002-9.942-8.058-18-17.998-18z" />
<glyph unicode="&#xe96e;" d="M407.056 25.727c-4.606 0-9.214 1.756-12.728 5.272l-36.59 36.594c-7.030 7.030-7.030 18.428 0 25.454 7.030 7.030 18.428 7.030 25.456 0l36.59-36.594c7.030-7.030 7.030-18.428 0-25.454-3.514-3.514-8.122-5.272-12.728-5.272z" />
<glyph unicode="&#xe96f;" d="M383.194 93.050c-7.028 7.030-18.424 7.030-25.456 0-7.030-7.030-7.030-18.424 0-25.454l12.11-12.11 25.454 25.454-12.108 12.11z" />
<glyph unicode="&#xe970;" d="M134.371 164.88l-75.859 75.859c-7.030 7.030-7.030 18.424 0 25.454l32.552 32.552 25.454-25.456-19.822-19.824 63.131-63.131-25.456-25.454z" />
<glyph unicode="&#xe971;" d="M116.501 273.293l-15.559-15.559-25.456 25.456 15.559 15.559 25.456-25.456z" />
<glyph unicode="&#xe972;" d="M402.905 112.753l-64.878-64.878-236.178 236.178 64.878 64.878 236.178-236.178z" />
<glyph unicode="&#xe973;" d="M166.729 348.935l-64.878-64.878-42.032 42.032 64.878 64.878 42.032-42.032z" />
<glyph unicode="&#xe974;" d="M269.286 116.617l-25.456 25.456 64.878 64.878 25.456-25.456-64.878-64.878z" />
<glyph unicode="&#xe975;" d="M223.325 162.588l-25.456 25.456 64.878 64.878 25.456-25.456-64.878-64.878z" />
<glyph unicode="&#xe976;" d="M160.366 942.612h791.638v-989.226h-791.638z" />
<glyph unicode="&#xe977;" d="M797.486 79.566c-4.168 0-8.288 1.498-11.534 4.372-5.192 4.598-7.152 11.84-4.994 18.432 1.27 3.878 1.966 7.874 2.214 11.87-11.108-16.734-25.214-29.924-41.768-33.558-11.52-2.53-28.87-1.556-46.078 17.458-28.698 31.708-9.128 67.274 5.162 93.244 16.85 30.626 16.376 35.478 7.274 41.45-7.008 4.598-18.984 1.692-27.794-1.554-55.502-20.456-131.276-104.532-137.636-126.342-2.69-9.22-12.346-14.514-21.562-11.824-9.218 2.69-14.514 12.344-11.824 21.562 10.36 35.514 96.126 126.062 158.998 149.236 23.73 8.748 43.548 8.072 58.9-2 17.054-11.192 24.412-27.22 21.276-46.346-2.28-13.902-9.844-27.65-17.16-40.944-19.746-35.886-18.044-44.082-9.846-53.14 7.282-8.046 11.466-7.128 12.838-6.828 10.448 2.294 27.176 23.58 37.084 55.226 2.044 6.536 7.736 11.26 14.536 12.070 6.81 0.814 13.442-2.448 16.966-8.318 1.392-2.316 8.58-14.83 12.678-32.176 5.12 9.812 9.522 20.908 13.456 31.698 1.888 5.17 6.106 9.144 11.384 10.712 5.276 1.564 10.986 0.542 15.386-2.76 7.944-5.958 34.020-27.614 36.046-56.118 0.73-10.27-1.49-25.604-16.216-40.328-6.79-6.79-17.802-6.79-24.59 0-6.79 6.79-6.79 17.802 0 24.59 5.908 5.908 6.32 10.404 6.116 13.272-0.316 4.454-2.524 9.154-5.546 13.574-10.804-23.896-24.81-44.788-46.404-54.89-2.348-1.102-4.864-1.64-7.362-1.64z" />
<glyph unicode="&#xe978;" d="M569.703 51.462c-0.28 0-0.562 0.006-0.842 0.018-9.592 0.46-16.996 8.606-16.54 18.198 0.93 19.47 29.466 55.512 35.176 62.54 17.008 20.924 42.204 46.534 65.654 49.698 9.526 1.282 18.272-5.392 19.556-14.908 1.284-9.518-5.39-18.272-14.908-19.556-6.77-0.914-22.662-12.264-41.554-35.026-17.262-20.796-27.9-39.87-29.232-45.102-0.788-8.974-8.32-15.862-17.31-15.862z" />
<glyph unicode="&#xe979;" d="M833.496 782.12h-554.613c-9.604 0-17.388 7.786-17.388 17.388 0 9.604 7.786 17.388 17.388 17.388h554.613c9.604 0 17.388-7.786 17.388-17.388s-7.786-17.388-17.388-17.388z" />
<glyph unicode="&#xe97a;" d="M833.496 700.801h-207.752c-9.604 0-17.388 7.786-17.388 17.388s7.786 17.388 17.388 17.388h207.754c9.604 0 17.388-7.786 17.388-17.388-0.002-9.604-7.788-17.388-17.39-17.388z" />
<glyph unicode="&#xe97b;" d="M572.415 700.801h-293.533c-9.604 0-17.388 7.786-17.388 17.388s7.786 17.388 17.388 17.388h293.531c9.604 0 17.388-7.786 17.388-17.388 0.002-9.604-7.784-17.388-17.386-17.388z" />
<glyph unicode="&#xe97c;" d="M833.496 619.483h-554.613c-9.604 0-17.388 7.786-17.388 17.388s7.786 17.388 17.388 17.388h554.613c9.604 0 17.388-7.786 17.388-17.388s-7.786-17.388-17.388-17.388z" />
<glyph unicode="&#xe97d;" d="M833.496 538.165h-126.604c-9.604 0-17.388 7.786-17.388 17.388s7.786 17.388 17.388 17.388h126.606c9.604 0 17.388-7.786 17.388-17.388-0.002-9.602-7.788-17.388-17.39-17.388z" />
<glyph unicode="&#xe97e;" d="M653.565 538.165h-374.683c-9.604 0-17.388 7.786-17.388 17.388s7.786 17.388 17.388 17.388h374.683c9.604 0 17.388-7.786 17.388-17.388s-7.786-17.388-17.388-17.388z" />
<glyph unicode="&#xe97f;" d="M833.496 456.849h-309.769c-9.604 0-17.388 7.786-17.388 17.388s7.786 17.388 17.388 17.388h309.767c9.604 0 17.388-7.786 17.388-17.388s-7.784-17.388-17.386-17.388z" />
<glyph unicode="&#xe980;" d="M472.721 456.849h-193.836c-9.604 0-17.388 7.786-17.388 17.388s7.786 17.388 17.388 17.388h193.836c9.604 0 17.388-7.786 17.388-17.388s-7.784-17.388-17.388-17.388z" />
<glyph unicode="&#xe981;" d="M692.979 375.531h-414.097c-9.604 0-17.388 7.786-17.388 17.388 0 9.604 7.786 17.388 17.388 17.388h414.097c9.604 0 17.388-7.786 17.388-17.388s-7.784-17.388-17.388-17.388z" />
<glyph unicode="&#xe982;" d="M403.433 124.147l-62.675-62.675-228.156 228.156 62.675 62.675 228.156-228.156z" />
<glyph unicode="&#xe983;" d="M175.28 352.306l-62.675-62.675-40.605 40.605 62.675 62.675 40.605-40.605z" />
<glyph unicode="&#xe984;" d="M274.361 127.879l-24.592 24.592 62.675 62.675 24.592-24.592-62.675-62.675z" />
<glyph unicode="&#xe985;" d="M229.961 172.292l-24.592 24.592 62.675 62.675 24.592-24.592-62.675-62.675z" />
<glyph unicode="&#xe986;" d="M952.004 960h-791.638c-9.604 0-17.388-7.786-17.388-17.388v-534.419c-2.524 1.372-5.374 2.116-8.3 2.116-4.612 0-9.036-1.832-12.296-5.094l-62.68-62.678c-3.262-3.26-5.094-7.684-5.094-12.296s1.832-9.036 5.094-12.296l28.308-28.308-17.266-17.266c-3.262-3.26-5.094-7.684-5.094-12.296s1.832-9.036 5.094-12.296l72.23-72.228v-222.164c0-9.604 7.786-17.388 17.388-17.388h791.64c9.604 0 17.388 7.786 17.388 17.388v989.226c0.002 9.602-7.784 17.388-17.386 17.388zM142.978 224.733l-35.344 35.344 4.97 4.968 30.372-30.374v-9.938zM124.9 301.933l-28.308 28.308 38.086 38.086 244.172-244.172-38.088-38.086-215.862 215.864zM934.614-29.224h-756.857v229.12l150.712-150.714c3.394-3.396 7.846-5.094 12.296-5.094s8.9 1.698 12.296 5.094l19.044 19.044 23.052-23.056c3.394-3.396 7.846-5.094 12.296-5.094s8.9 1.698 12.296 5.094c6.79 6.79 6.79 17.8 0 24.59l-23.052 23.052 19.044 19.044c3.262 3.26 5.094 7.684 5.094 12.296s-1.832 9.036-5.094 12.296l-237.988 237.982v550.791h756.861v-954.446z" />
<glyph unicode="&#xe987;" d="M250.363 956.732h773.637v-966.728h-773.637v966.728z" />
<glyph unicode="&#xe988;" d="M908.184 799.609h-542.004c-9.538 0-17.272 7.73-17.272 17.272s7.732 17.272 17.272 17.272h542.004c9.538 0 17.272-7.73 17.272-17.272s-7.732-17.272-17.272-17.272z" />
<glyph unicode="&#xe989;" d="M908.184 720.143h-203.033c-9.54 0-17.272 7.73-17.272 17.272s7.73 17.272 17.272 17.272h203.033c9.538 0 17.272-7.73 17.272-17.272s-7.732-17.272-17.272-17.272z" />
<glyph unicode="&#xe98a;" d="M653.037 720.143h-286.857c-9.538 0-17.272 7.73-17.272 17.272s7.732 17.272 17.272 17.272h286.857c9.54 0 17.272-7.73 17.272-17.272s-7.732-17.272-17.272-17.272z" />
<glyph unicode="&#xe98b;" d="M908.184 640.669h-542.004c-9.538 0-17.272 7.73-17.272 17.272s7.732 17.272 17.272 17.272h542.004c9.538 0 17.272-7.73 17.272-17.272s-7.732-17.272-17.272-17.272z" />
<glyph unicode="&#xe98c;" d="M908.184 561.204h-123.732c-9.54 0-17.272 7.73-17.272 17.272s7.73 17.272 17.272 17.272h123.732c9.538 0 17.272-7.73 17.272-17.272 0-9.54-7.732-17.272-17.272-17.272z" />
<glyph unicode="&#xe98d;" d="M732.343 561.204h-366.163c-9.538 0-17.272 7.73-17.272 17.272s7.732 17.272 17.272 17.272h366.163c9.54 0 17.272-7.73 17.272-17.272-0.002-9.54-7.734-17.272-17.272-17.272z" />
<glyph unicode="&#xe98e;" d="M908.184 481.73h-302.727c-9.54 0-17.272 7.73-17.272 17.272 0 9.54 7.73 17.272 17.272 17.272h302.725c9.538 0 17.272-7.73 17.272-17.272 0.002-9.54-7.73-17.272-17.27-17.272z" />
<glyph unicode="&#xe98f;" d="M555.61 481.73h-189.431c-9.538 0-17.272 7.73-17.272 17.272 0 9.54 7.732 17.272 17.272 17.272h189.431c9.54 0 17.272-7.73 17.272-17.272-0.002-9.54-7.732-17.272-17.272-17.272z" />
<glyph unicode="&#xe990;" d="M806.671 402.266h-440.49c-9.538 0-17.272 7.73-17.272 17.272 0 9.54 7.732 17.272 17.272 17.272h440.49c9.54 0 17.272-7.73 17.272-17.272s-7.732-17.272-17.272-17.272z" />
<glyph unicode="&#xe991;" d="M908.184 322.798h-325.513c-9.538 0-17.272 7.73-17.272 17.272s7.732 17.272 17.272 17.272h325.513c9.538 0 17.272-7.73 17.272-17.272s-7.732-17.272-17.272-17.272z" />
<glyph unicode="&#xe992;" d="M519.232 322.798h-153.051c-9.538 0-17.272 7.73-17.272 17.272s7.732 17.272 17.272 17.272h153.051c9.54 0 17.272-7.73 17.272-17.272s-7.734-17.272-17.272-17.272z" />
<glyph unicode="&#xe993;" d="M908.184 243.333h-175.841c-9.54 0-17.272 7.73-17.272 17.272 0 9.54 7.73 17.272 17.272 17.272h175.841c9.538 0 17.272-7.73 17.272-17.272s-7.732-17.272-17.272-17.272z" />
<glyph unicode="&#xe994;" d="M670.285 243.333h-304.105c-9.538 0-17.272 7.73-17.272 17.272 0 9.54 7.732 17.272 17.272 17.272h304.105c9.54 0 17.272-7.73 17.272-17.272s-7.732-17.272-17.272-17.272z" />
<glyph unicode="&#xe995;" d="M908.184 163.863h-542.004c-9.538 0-17.272 7.73-17.272 17.272 0 9.54 7.732 17.272 17.272 17.272h542.004c9.538 0 17.272-7.73 17.272-17.272 0-9.54-7.732-17.272-17.272-17.272z" />
<glyph unicode="&#xe996;" d="M705.151 84.397h-338.971c-9.538 0-17.272 7.73-17.272 17.272s7.732 17.272 17.272 17.272h338.971c9.54 0 17.272-7.73 17.272-17.272-0.002-9.54-7.732-17.272-17.272-17.272z" />
<glyph unicode="&#xe997;" d="M250.363 956.732h586.716v-966.728h-586.716v966.728z" />
<glyph unicode="&#xe998;" d="M0 905.998h773.637v-966.728h-773.637v966.728z" />
<glyph unicode="&#xe999;" d="M657.825 748.875h-542.004c-9.538 0-17.272 7.732-17.272 17.272s7.732 17.272 17.272 17.272h542.004c9.54 0 17.272-7.73 17.272-17.272-0.002-9.538-7.732-17.272-17.272-17.272z" />
<glyph unicode="&#xe99a;" d="M657.825 589.937h-542.004c-9.538 0-17.272 7.73-17.272 17.272 0 9.54 7.732 17.272 17.272 17.272h542.004c9.54 0 17.272-7.73 17.272-17.272-0.002-9.54-7.732-17.272-17.272-17.272z" />
<glyph unicode="&#xe99b;" d="M657.825 510.47h-123.732c-9.54 0-17.272 7.73-17.272 17.272s7.73 17.272 17.272 17.272h123.732c9.54 0 17.272-7.73 17.272-17.272s-7.732-17.272-17.272-17.272z" />
<glyph unicode="&#xe99c;" d="M481.982 510.47h-366.161c-9.538 0-17.272 7.73-17.272 17.272s7.732 17.272 17.272 17.272h366.163c9.538 0 17.272-7.73 17.272-17.272s-7.734-17.272-17.274-17.272z" />
<glyph unicode="&#xe99d;" d="M657.825 430.998h-302.727c-9.538 0-17.272 7.73-17.272 17.272 0 9.54 7.732 17.272 17.272 17.272h302.725c9.54 0 17.272-7.73 17.272-17.272 0-9.538-7.73-17.272-17.27-17.272z" />
<glyph unicode="&#xe99e;" d="M305.253 430.998h-189.431c-9.538 0-17.272 7.73-17.272 17.272 0 9.54 7.732 17.272 17.272 17.272h189.431c9.538 0 17.272-7.73 17.272-17.272-0.002-9.538-7.734-17.272-17.272-17.272z" />
<glyph unicode="&#xe99f;" d="M657.825 272.065h-325.509c-9.538 0-17.272 7.732-17.272 17.272s7.732 17.272 17.272 17.272h325.511c9.54 0 17.272-7.73 17.272-17.272-0.004-9.54-7.734-17.272-17.274-17.272z" />
<glyph unicode="&#xe9a0;" d="M268.875 272.065h-153.053c-9.538 0-17.272 7.732-17.272 17.272s7.732 17.272 17.272 17.272h153.053c9.538 0 17.272-7.73 17.272-17.272-0.002-9.54-7.734-17.272-17.272-17.272z" />
<glyph unicode="&#xe9a1;" d="M657.825 192.601h-175.841c-9.538 0-17.272 7.73-17.272 17.272s7.732 17.272 17.272 17.272h175.841c9.54 0 17.272-7.73 17.272-17.272-0.002-9.542-7.732-17.272-17.272-17.272z" />
<glyph unicode="&#xe9a2;" d="M419.928 192.601h-304.107c-9.538 0-17.272 7.73-17.272 17.272s7.732 17.272 17.272 17.272h304.107c9.538 0 17.272-7.73 17.272-17.272s-7.734-17.272-17.272-17.272z" />
<glyph unicode="&#xe9a3;" d="M657.825 113.131h-542.004c-9.538 0-17.272 7.732-17.272 17.272s7.732 17.272 17.272 17.272h542.004c9.54 0 17.272-7.73 17.272-17.272-0.002-9.54-7.732-17.272-17.272-17.272z" />
<glyph unicode="&#xe9a4;" d="M454.794 33.666h-338.973c-9.538 0-17.272 7.73-17.272 17.272 0 9.54 7.732 17.272 17.272 17.272h338.973c9.538 0 17.272-7.73 17.272-17.272-0.002-9.538-7.734-17.272-17.272-17.272z" />
<glyph unicode="&#xe9a5;" d="M336.219 292.396c35.782 23.038 31.78 91.606 31.78 107.606h288c0-15.999-4.437-84.567 31.342-107.606l-175.342-196.394-175.78 196.394z" />
<glyph unicode="&#xe9a6;" d="M623.998 224l63.343 68.395c-35.782 23.036-31.342 91.606-31.342 107.606h-288c20.663-59.409 157.334-161.334 255.999-176.001z" />
<glyph unicode="&#xe9a7;" d="M736 608.001c0-128.13-73.779-288-223.999-288s-223.999 159.87-223.999 288 100.289 176.001 223.999 176.001 223.999-47.871 223.999-176.001z" />
<glyph unicode="&#xe9a8;" d="M295.477 579.999c-23.984 6.001-39.697-6.82-39.697-32.001 0-33.333 32.254-115 66.161-63.999 33.91 51-26.464 96-26.464 96z" />
<glyph unicode="&#xe9a9;" d="M724.448 579.999c26.18 6.001 43.332-6.82 43.332-32.001 0-33.333-35.206-115-72.218-63.999s28.886 96 28.886 96z" />
<glyph unicode="&#xe9aa;" d="M336 672c-6.667-19.177-15.999-128.001-15.999-128.001l-32.001 17.704-8.999 117.28 56.999-6.983z" />
<glyph unicode="&#xe9ab;" d="M688 672c6.667-19.177 15.999-128.001 15.999-128.001l32.001 17.704 8.999 117.28-56.999-6.983z" />
<glyph unicode="&#xe9ac;" d="M880-64c26.511 0 48 21.49 48 48v122.311c0 70.401-54.859 145.559-121.91 167.012l-100.1 32.030c-53.855-41.18-130.819-97.354-193.989-97.354s-140.134 56.175-193.989 97.354l-100.102-32.030c-67.051-21.453-121.91-96.61-121.91-167.012v-122.311c0-26.511 21.49-48 48-48h736z" />
<glyph unicode="&#xe9ad;" d="M544 160.001c0-8.8-7.2-15.999-15.999-15.999h-32.001c-8.8 0-15.999 7.2-15.999 15.999v32.001c0 8.8 7.2 15.999 15.999 15.999h32.001c8.8 0 15.999-7.2 15.999-15.999v-32.001z" />
<glyph unicode="&#xe9ae;" d="M527.998 64.001c0-8.836-7.163-15.999-15.999-15.999s-15.999 7.163-15.999 15.999c0 8.836 7.163 15.999 15.999 15.999s15.999-7.163 15.999-15.999z" />
<glyph unicode="&#xe9af;" d="M511.999 208.001l-66.759-66.759c-6.952-6.952-18.47-6.047-24.254 1.904l-116.986 160.858 37.265 37.265c6.018 6.018 15.693 6.271 22.017 0.579l148.717-133.846z" />
<glyph unicode="&#xe9b0;" d="M511.999 208.001l66.759-66.759c6.952-6.952 18.47-6.047 24.254 1.904l116.986 160.858-37.265 37.265c-6.018 6.018-15.693 6.271-22.017 0.579l-148.717-133.846z" />
<glyph unicode="&#xe9b1;" d="M533.982 153.001l-21.983-8.999-21.981 8.999-10.018-217.001h63.999z" />
<glyph unicode="&#xe9b2;" d="M885.634-63.431c23.821 2.821 42.364 22.854 42.364 47.431v122.311c0 70.401-54.859 145.559-121.91 167.012l-87.239 27.916-126.848-364.67h293.634z" />
<glyph unicode="&#xe9b3;" d="M305.15 301.239v0l-87.239-27.916c-67.051-21.453-121.91-96.61-121.91-167.012v-122.311c0-24.58 18.545-44.611 42.364-47.431h293.636l-126.851 364.67z" />
<glyph unicode="&#xe9b4;" d="M303.999 304.001l-68.055-82.274c-6.334-7.277-4.834-18.465 3.195-23.816l32.862-21.908-38.011-38.011c-5.707-5.707-6.271-14.766-1.315-21.137l103.329-180.852 96 0.569-128.003 367.43z" />
<glyph unicode="&#xe9b5;" d="M719.998 304.001l68.055-82.274c6.334-7.277 4.834-18.465-3.195-23.816l-32.862-21.908 38.011-38.011c5.707-5.707 6.271-14.766 1.315-21.137l-103.329-180.852-96 0.569 128.003 367.43z" />
<glyph unicode="&#xe9b6;" d="M751.999 672c-159.999 0-319.999 0-480 0 0 85.333 0 145.048 0 230.381 150.777 76.825 329.221 76.825 480 0 0-85.333 0-145.048 0-230.381z" />
<glyph unicode="&#xe9b7;" d="M433.309 960c114.548 0 207.418-92.846 207.418-207.393 0-114.572-92.87-271.246-207.418-271.246s-207.418 156.674-207.418 271.246c0 114.548 92.87 207.393 207.418 207.393z" />
<glyph unicode="&#xe9b8;" d="M965.688 156.945c0-122.024-98.92-220.945-220.945-220.945s-220.945 98.92-220.945 220.945c0 122.024 98.92 220.945 220.945 220.945s220.945-98.92 220.945-220.945z" />
<glyph unicode="&#xe9b9;" d="M591.984 175.357h305.52v-36.824h-305.52v36.824z" />
<glyph unicode="&#xe9ba;" d="M726.331 309.703h36.824v-305.52h-36.824v305.52z" />
<glyph unicode="&#xe9bb;" d="M489.424 156.945c0-53.248 16.374-102.739 44.41-143.712-32.602-5.941-66.21-9.034-100.53-9.034-144.326 0-275.886 54.745-374.992 144.621v0.319c0 149.481 87.47 278.513 213.997 338.733 47.552-47.429 103.23-72.985 160.995-72.985 57.789 0 113.443 25.556 161.020 72.985 41.145-19.59 78.165-46.447 109.343-78.926-121.323-19.689-214.243-125.202-214.243-252z" />
<glyph unicode="&#xe9bc;" d="M901.34 646.295h-883.314c-9.956 0-18.026 8.072-18.026 18.026v216.324c0 9.956 8.072 18.026 18.026 18.026h883.314c9.956 0 18.026-8.072 18.026-18.026v-216.322c0.002-9.956-8.070-18.028-18.026-18.028z" />
<glyph unicode="&#xe9bd;" d="M216.322 646.295h-198.296c-9.956 0-18.026 8.072-18.026 18.026v216.324c0 9.956 8.072 18.026 18.026 18.026h198.296c9.956 0 18.026-8.072 18.026-18.026v-216.322c0.002-9.956-8.070-18.028-18.026-18.028z" />
<glyph unicode="&#xe9be;" d="M612.913 790.51h-306.457c-9.964 0-18.026 8.062-18.026 18.026s8.062 18.026 18.026 18.026h306.455c9.964 0 18.026-8.062 18.026-18.026s-8.060-18.026-18.024-18.026z" />
<glyph unicode="&#xe9bf;" d="M829.234 718.402h-342.509c-9.964 0-18.026 8.062-18.026 18.026s8.062 18.026 18.026 18.026h342.509c9.964 0 18.026-8.062 18.026-18.026s-8.062-18.026-18.026-18.026z" />
<glyph unicode="&#xe9c0;" d="M414.617 718.402h-108.162c-9.964 0-18.026 8.062-18.026 18.026s8.062 18.026 18.026 18.026h108.162c9.964 0 18.026-8.062 18.026-18.026s-8.062-18.026-18.026-18.026z" />
<glyph unicode="&#xe9c1;" d="M117.174 736.428c-9.964 0-18.026 8.062-18.026 18.026s8.062 18.026 18.026 18.026c14.91 0 27.040 12.13 27.040 27.040s-12.13 27.040-27.040 27.040-27.040-12.13-27.040-27.040c0-9.964-8.062-18.026-18.026-18.026s-18.026 8.062-18.026 18.026c0 34.788 28.308 63.094 63.094 63.094s63.094-28.308 63.094-63.094-28.308-63.092-63.096-63.092z" />
<glyph unicode="&#xe9c2;" d="M117.35 682.349c-9.964 0-18.114 8.062-18.114 18.026s7.974 18.026 17.938 18.026h0.176c9.964 0 18.026-8.062 18.026-18.026 0.002-9.964-8.062-18.026-18.026-18.026z" />
</font>
</defs>
</svg>
